/* XPM */
static char *_110a6c420854798907c573114322c74ncOlKHHpnTAhn6aw[] = {
/* columns rows colors chars-per-pixel */
"64 64 84 1 ",
"  c black",
". c #010101",
"X c #020202",
"o c gray1",
"O c #040404",
"+ c gray2",
"@ c #060606",
"# c #070707",
"$ c gray3",
"% c #090909",
"& c gray4",
"* c #0B0B0B",
"= c #0C0C0C",
"- c gray5",
"; c #0E0E0E",
": c gray6",
"> c #101010",
", c #111111",
"< c gray7",
"1 c #131313",
"2 c gray8",
"3 c #151515",
"4 c #161616",
"5 c gray9",
"6 c #181818",
"7 c #191919",
"8 c gray10",
"9 c #1B1B1B",
"0 c gray11",
"q c #1D1D1D",
"w c #1E1E1E",
"e c gray12",
"r c #202020",
"t c gray13",
"y c #222222",
"u c #232323",
"i c gray14",
"p c #252525",
"a c gray15",
"s c #272727",
"d c #282828",
"f c gray16",
"g c #2A2A2A",
"h c gray17",
"j c #2C2C2C",
"k c #2D2D2D",
"l c gray18",
"z c #2F2F2F",
"x c gray19",
"c c #313131",
"v c #323232",
"b c gray20",
"n c #343434",
"m c #353535",
"M c gray21",
"N c #373737",
"B c gray22",
"V c #393939",
"C c #3A3A3A",
"Z c gray23",
"A c #3C3C3C",
"S c gray24",
"D c #3E3E3E",
"F c #3F3F3F",
"G c gray25",
"H c #414141",
"J c gray26",
"K c #434343",
"L c #444444",
"P c gray27",
"I c #464646",
"U c gray28",
"Y c #484848",
"T c #494949",
"R c gray29",
"E c #4B4B4B",
"W c #4C4C4C",
"Q c gray30",
"! c #4E4E4E",
"~ c gray31",
"^ c gray33",
"/ c #555555",
"( c #565656",
") c gray34",
/* pixels */
";;;***##292**>2>9009>;>290yyyy992lnvvy0laydCCvdvy922009>>>>>>>22",
"********;*;>>;;>20yy0922222222220ldaa0>9ayyld0900922992>>>>>>>>>",
">>>>>>>2>;2ya990ayyyyaaaldayyadddlayda9092200990ay00yy09>>>;;;;;",
";;;;;***>>20092902220y09aayy0yya92>>2990y0992>>>22>>>>>>>>>;;;;;",
"09922>>>0y022909>20lvl0>29909922y0000ydl00022>>>000099992>>>;;**",
"yy000999dld09aay90alvdy20yaaay09y000>2y0;22>2992>22>;;;>992>>;;*",
";;;>>2220y0000y000092290yyyyyy00vaadadva9ya0009;0yay99900092>>;;",
">>20ydlly0ylvdadlvvlayaldayy0yadl99alnCa2ydddvly0yay090yy0092>>;",
"***;299>9900yyaaaddy929yaa92yy0y00yyyyaa000ada9;0ay9292;229992>>",
"29922299yyyyaaaa0999yalvdlayddadACnvnnlavdadnCvaddaay099000092>;",
";>>;##;200992>>;9>*;2yaa99;>aa92laydvva9la00aday9>;2>##;>2222>;*",
">>>;;20d>>2900yyla00ydlvAAnvnd92ayalCCvaAJJCldlvay0y0929>290yyy0",
">*##*290*;;>>299000990dvdnnld0200adlvldydvvly990292>>>>;#*;>2222",
"dy99yaay0yyyadddvnnvdadvnnddnvaydlnCCnnnayyaddy92002209>00000922",
"99229999#*>9ydlvlllda099Jny0vv02y0yydddad029ada00009900999992>**",
"#;22229099999999aaadlla0>009yalAAvaaddy2ly2>90yy0990y99y2999922>",
"lda022yd2yyad92aayyadvvl290adnY//Yndaadadda9909*>9yy0990y9>;*;>2",
"2>>>>222>02**2ydaay2>>0aly2>9dnCCvayaddadlla0229y9;*;;;*092>;;;;",
"9220dldadlva9yayydvCAAnvAnvvnALLayyyddaydadvladnJClaaay0990yyy00",
"*#*>90920>0dy909daadvnvdyddddlvCay9900920220aaya0ada0222;>>22222",
"90y000adl920>9addlnCCCALLLAnvnJYJCvlllllnnvddla0>9yay0yyday022>>",
"0yy0220ady2##2a0;9avnCnna0990aaala00yadddnna0yy99>;>9yaa092>****",
"299099990ay0lACnnd090adddddvCAnvaayalvvvdvvldaddy0220yaa99000099",
";>20yy9;909dCvadddldaadlnnnlaalvddlnAAnvva0aa0229yaa022229yaa02>",
"2229yy09>>>>20adldalAJv0>9ld9annlnnvCnlnAvvnndyy90yyyyaa092299>*",
"20aa000addlvdaad0dldlAAvalALLQQLALAnvllCnllnAnvvda00yay0299992>>",
";;;>22>>>29009;#>9y090dvdlddnnd9ald000aCdyylvldlva22902;oo*;**;2",
"9920ya09990annd0naannadACCdyvCldnACvCCAQJCCJLJAAAvayaay0lvvla099",
";2009290>290allvd>*yly90vCd9yayyya09aa909220a099ay922229lday02;#",
">29999992yay00lAa020nAnynJAlay99llyaCClddyavCnnn0yyy000y2>>299>*",
"*##*>>;#00y090dndvlavLLndvnlyaa099>2dldly90dlldd000yay9222222>;*",
">2000990a020dnnllvvdydnAJCna2ydynCldvnnJlaalvdaavldvCnd9>9009990",
"y092>9dndyanCnAYlvALJnCJAAvddddvJAALLJLYAJJAAJv9dlvvvlddyaay00al",
";*##*20y090ay0yl022ala090y00ldyyy0ylvddvlnCvvvvvyy009922;;>22>;*",
"y090dnnndy990yvLQCnL//LCCndlLQLYACCJAnvvCladnCAJnvdy000y9929yy2;",
">;>20yyyy2**>0lCndanAClald00vCnCCvlvlaydn0>9aaad002>;;;;2>*##***",
">200999909>20a0>aadvlayaydddvdyyndadllnJCldvd00dyaaaaay0aay0220y",
">909>>>2;;*;202#alnCvaal9yy0y029ndaaddlCvdddd02>yyddddyy0addy929",
"9009990y9ya0ylvlvllCClaaadaylvlnJCCCnldlACvvCAnydddddaay0yaay92>",
"02>>9yyy9lClyadaCdylAna9ydanYQJACCALLnllvCCnnJLCCnldayaaly92292>",
">;;9aa2*9yy99aay00ya0>>0>;>0vnl0a0990allyad09CYndy09092;92>;;;;>",
"a9>2yay90ydvnnnnadlvCJLLQJvlvnnvnnnCnnvlla0yavnl0y009999000992>>",
";*o*299200dCCd00dddavAAvnd099yln999ya0;o02*;92;*90yy929y29992>*#",
"yy00y0>#00ylvldlddaalnnvJLLACCAJnvvCLLvynLCvCAlallvldddlyyyy09>>",
"09992>*o92;##2ad0990920aydld02909990yy9>2ddyy0>2ay09992>92>;****",
"2>;;>9yaada00adadyya02yvaadayanJvnCvdadlllnAn00vnlaada09002>>>29",
"2>;##*>9>9yallld2>>29ylnldy99ylCAAACCnnnndvAl90ldaayyy09>>>>>>>2",
"0yaaaaadndaadalCvla0annvnvdaydvnly0anAvaAvnnayay9yay090y>>900099",
">9yayyad>>9yy00a0alvvvnAAJAnlvnvdayalCAAJndy2*#*9;;9y092yyyy09>>",
"#;290yyady0ya0>>aaaaadlnvAAl09yyCldvCnvlyddaaddyy920y9>>ay922299",
";>>90yy0029dvllvnla00yaddnClddvnyadvnCnvAJJCvla92;>0y00000000992",
";*#*;;*#*;9y020dy9>20adddda00aa02alayllavdady>*;9>2002>2;;>22>;;",
"y0990y09;>00>#*2dy0ydddyCnvdvCnlaayydvnvCvlvladvyyydd00y92>;;>29",
"22220aaa;*>99>>9y00yyy09;22>2yaayoo>aayd992**>>;**>99>20;;;*****",
"2990yalnnnCAnddvddlvvnAJvnvdlnnvAdylvlaayaayydlaaadla99yyadday09",
";>>>;>9y>0aa>o*9dda9;*>92>**9da90vndyaa9>;>92;**>20y029y92>;****",
"220yadddyy090dvClldy00alvlvCCvllda9lvyddyady990adla2>00922>>>>>>",
"o;992>90002229yyla922222099002>2vy09>>yC92>**>9aya0;*22>22222222",
"*2002>200000yyyya099ydlly00adadvv0dyyd0ldy09ydnCddy9290999222222",
">>222>>;;>2900000yy000al022900aly9dlnny0ayyavnvly09>>>>>2222>>>>",
"9990992>;>90yy0090yy00advayy099y;00yy0ddy00yaay90922>;;>>>;;;;;;",
"9ydd090yyyaaay099220alldnldldaad9d2900nlldy00000y0909>>2;;******",
"*>99>;;229992>;;0922992>2>20099yddy0ylvyaay022909>;2>##*;;;;;***",
";;>222>>222222999yaaayadayavvdaddav2>y9y0alla00002299;*>>;;;;;;;"
};
