/* XPM */
static char *_35176f695934fa5c7fb986007a2e99b49TVo0a0R2afvcwE[] = {
/* columns rows colors chars-per-pixel */
"64 64 238 2 ",
"   c #5D260C",
".  c #4F2717",
"X  c #572B18",
"o  c #5D311C",
"O  c #652D16",
"+  c #6B341D",
"@  c #6B391E",
"#  c #653419",
"$  c #753B1D",
"%  c #743716",
"&  c #5A3425",
"*  c #6C3622",
"=  c #6C3B24",
"-  c #6D3D2B",
";  c #633928",
":  c #733B22",
">  c #7A3E24",
",  c #733C2B",
"<  c #723520",
"1  c #6B3F31",
"2  c #79431E",
"3  c #6B402D",
"4  c #6F4127",
"5  c #7C4325",
"6  c #74432C",
"7  c #7C452B",
"8  c #7C492C",
"9  c #764528",
"0  c #6D4536",
"q  c #6F4837",
"w  c #744534",
"e  c #7B4532",
"r  c #764934",
"t  c #7D4B34",
"y  c #744D3C",
"u  c #7C4D3B",
"i  c #7D513C",
"p  c #7C5341",
"a  c #7E5A4A",
"s  c #7F4B40",
"d  c #834525",
"f  c #854C26",
"g  c #83452A",
"h  c #844A2D",
"j  c #8B4C2D",
"k  c #894724",
"l  c #944E2E",
"z  c #8B542C",
"x  c #84512C",
"c  c #92532D",
"v  c #995929",
"b  c #844C33",
"n  c #8A4D33",
"m  c #844D3A",
"M  c #8A4D3A",
"N  c #844432",
"B  c #914E3A",
"V  c #855134",
"C  c #8C5334",
"Z  c #8E5B35",
"A  c #84523B",
"S  c #8C543B",
"D  c #8C593D",
"F  c #935435",
"G  c #995636",
"H  c #955A35",
"J  c #9B5C33",
"K  c #93563B",
"L  c #9A553A",
"P  c #945B3C",
"I  c #9A5C3C",
"U  c #A25E3D",
"Y  c #A55D37",
"T  c #A05C2F",
"R  c #9C623D",
"E  c #99643A",
"W  c #A3643C",
"Q  c #A66B3E",
"!  c #AA6A3E",
"~  c #A66538",
"^  c #AF713E",
"/  c #8B4718",
"(  c #845542",
")  c #8C5542",
"_  c #865942",
"`  c #8C5A43",
"'  c #8C5D4A",
"]  c #8D574D",
"[  c #925643",
"{  c #945C43",
"}  c #9B5D43",
"|  c #945D4A",
" . c #9B5D4B",
".. c #945E52",
"X. c #824C42",
"o. c #A15F43",
"O. c #8E624D",
"+. c #8F6046",
"@. c #956144",
"#. c #9C6344",
"$. c #9D6A45",
"%. c #95624B",
"&. c #9B644B",
"*. c #9D6A4C",
"=. c #946452",
"-. c #9B6552",
";. c #9C6A54",
":. c #9C6659",
">. c #9D6C5B",
",. c #976854",
"<. c #9D7056",
"1. c #8F6453",
"2. c #A36444",
"3. c #AA6444",
"4. c #A46A45",
"5. c #AA6B44",
"6. c #A3654A",
"7. c #A9654A",
"8. c #A46A4C",
"9. c #AB6C4C",
"0. c #B16D44",
"q. c #B16B49",
"w. c #AC7144",
"e. c #A6714C",
"r. c #AC724D",
"t. c #AB744B",
"y. c #B27146",
"u. c #B2744C",
"i. c #B57A4D",
"p. c #BA7B4C",
"a. c #B97646",
"s. c #A26653",
"d. c #A46B53",
"f. c #AB6D53",
"g. c #A36D59",
"h. c #AA6D58",
"j. c #AA6754",
"k. c #B16E52",
"l. c #B06F59",
"z. c #A67154",
"x. c #AC7354",
"c. c #AE7954",
"v. c #A5725B",
"b. c #AC745B",
"n. c #AE7A5B",
"m. c #B37454",
"M. c #B37A54",
"N. c #BB7C54",
"B. c #B3755A",
"V. c #B87658",
"C. c #B47B5C",
"Z. c #BB7C5C",
"A. c #B97353",
"S. c #A56D61",
"D. c #A47463",
"F. c #AA7661",
"G. c #AD7A63",
"H. c #AF7D69",
"J. c #A67863",
"K. c #B37B63",
"L. c #BB7D62",
"P. c #B47D69",
"I. c #B67966",
"U. c #B37F72",
"Y. c #C47D4C",
"T. c #C17E56",
"R. c #C07F63",
"E. c #BD814D",
"W. c #BE8254",
"Q. c #B5815C",
"!. c #BC835B",
"~. c #AE805F",
"^. c #B68163",
"/. c #BC8364",
"(. c #BE8863",
"). c #B5836D",
"_. c #BB846B",
"`. c #BC896B",
"'. c #BD8973",
"]. c #BA8776",
"[. c #C28255",
"{. c #C2845C",
"}. c #CA855D",
"|. c #C58A5D",
" X c #CB8B5E",
".X c #C68854",
"XX c #D28C5F",
"oX c #D7915E",
"OX c #C38464",
"+X c #C98664",
"@X c #C58B64",
"#X c #CA8C65",
"$X c #C48569",
"%X c #C38B6C",
"&X c #CB8C6B",
"*X c #C8876B",
"=X c #D18E65",
"-X c #D18869",
";X c #CD9365",
":X c #CC926C",
">X c #C8946A",
",X c #D39264",
"<X c #D2946B",
"1X c #D99569",
"2X c #D5996C",
"3X c #DA996C",
"4X c #DB9766",
"5X c #C58D73",
"6X c #CC8D71",
"7X c #C58A76",
"8X c #D28E73",
"9X c #C69172",
"0X c #CC9374",
"qX c #CC947B",
"wX c #CA9779",
"eX c #D39573",
"rX c #D59B75",
"tX c #DB9B73",
"yX c #D3957A",
"uX c #D49B7C",
"iX c #D99A7A",
"pX c #D89777",
"aX c #E19E6A",
"sX c #DCA274",
"dX c #DBA37C",
"fX c #D5A272",
"gX c #E2A37B",
"hX c #E4A679",
"jX c #D79C82",
"kX c #CF9780",
"lX c #DCA484",
"zX c #DCA889",
"xX c #ECAD82",
"cX c #E4A986",
"vX c #EBB288",
"bX c #F4B58A",
"nX c #EFB593",
"mX c #FFC39A",
/* pixels */
"r ' ;.,.&.z.x.8.4.A.<X}.[. X X1XgXcXjXpXiX$Xm.x.$XiX&XOXm.9.Z.A.! T.~ Q Z.#.C P D D 7 ;._.b.^.*.G.v.F.F.g.v.v.d.^._.n./.%X`.%XQ.",
"= = - 6 t V C C % 2 I ~ ! y.T v W 7.7.2.4.I I 4.m.m.2.2.2.I I c J y.~ ~ m.z.#.S t | @ A 8 ` &.D | u t %.A 9 { C 8.*.P 8.8.#.#.P ",
"u u u _ %.*.*.#.R 4.N.N.{.,X[.N.N.{.:X<X#X<XhXxXbXcX<XtXtX{.!.M.i.A.{.@XuXcXqX5X;.H._ %.r %.F.H.).;.` K.n.d.qXK.wX9Xz.8.4.4.m.c.",
"u ' %.%.z.^.C.8.(.#XdX<X,XtX3XgXW.[.2XsX2XhXbXbXxXxXhXhXtX|.|.|.@X9./.uXlXzXqX7XJ.D.=.,.=.' H.'.G.&.A &.b._.uX/.wXwXc.P C P r.4.",
"o 6 r 4 6 D @.P #.4.Q.u.w.i.! 5.J J Q i.u.i.W.i.u.u.i.w.Q w.Q W 9.h { d.&.| r w ( u w u p w A A t 8 b h } 8.K #.C.Z.9.4.I z H f ",
"6 6 = @ @ 8 @.c.Q.c.M.r.N.|.i.w.i.i.W. X#X|.|.i.2X|.W.w.u.[.w.R I h P { ) ) ( u ' =.u ' u =.u 6 { #.5X%X$XB.C C.dXrX<XgXrXN.[.|.",
"A u r 6 t ` z.Q.9X(.@XOX<XhX<X@X|.;X<X<X<X;X@X;XxX<X|.u.N.|.u.w.6.6.6.B.b.g.H.P.D.D.=.>.| G.&.| B.8.0XuXL.x.7.Z.pXpX<XpX<X{.<X3X",
"X # # # 4 D D x 5 z w.c.N.!.Q J W u.u.5.4.W 2.M.!.W W E W t.5.Z.9.6.} B.d.b  .F.&.m e e m M S } #.5 C P $ j 9.H k 5.9.5.5.3.0.J ",
"A 6 8 D 8 V z.E 8.c.4.4.4.w.R w.r.r.R 4./.m.!.R 2.C.r.#.!.rX:X!.eXq.7.B.7.} 6.d.6.B.d.f.h.L.6.6.Z.7.7.9.6.9.T.{.OX#X4.|.N.y.p.0.",
"@.` V @.#.#.C.%XC.^.8.$.4.w.5.!.lX9.x.L.iX$X} P 8.8.#.8./.$X^.$X+XN.m.T.V.B.$XC.%XOXx.B.L.m.U 2.f.C.*X*X*XpXpX{.pX<X#XtXtX=X=X1X",
"9 b @ 8 #.C D x.M.m.R 2.4.r.2.5.L.6.C.x.x.} h P } C 5 h P P K #.l U I I F } m.I #.C.$Xk.F % k 9.7.6.x.C.9.7.2.I 9.5.N.i.N.u.0.i.",
"b &.P 8.^.8.I 8.2.8.R 4.R 4.I R f.6.K #.B.#.x.6.#.B.$X0X0X/.} > I 3.9.G F 6.f.8.B.f.I k 7.5.U j L F } 2.I I 2.F c I u.W 5.J W J ",
"6.C.L.$X%X$X$Xm.!.@XOXOX9.M.{.eXx.z.x.5X0X&._.uX%XzXnXzXjXuX/.I m.z.^.#.@.C.b.`.K._.L.8.L.C.Z.Z.} C.%XC.z.%X$XI Z.#X#X:X<Xu.#XN.",
"F P K P F 6.Z.2.2.I I 9.4.u.9.4.!.P 8.8.%X@X8.#.(.:XlXcXuX0XZ.R P b P t A @.A v.v.g.;.&.b.8.6.x.8.b.K.8.} x.C.P C.C.5.&X&XI A.A.",
"n F g d d F 9.2.F j F m.A.{.q.H H E M.z z 2.R R M.w.t.e.E E R P S ` u A +.( u ( i _ i ` ` S b { P 7 h S C S 2.8.I P k 4.4.H I W ",
"} 6.K K } I 7.7.4.m.+XiXOX&XeX<X9.!.r.R J J <XsX;X@X:X@Xm.c.M.$.;.).%.J.).O.O.i i ,.%.-.&.v.&.d.&.{ d.K.b.z.z.8.x.C.x.m.m.:XOXZ.",
"m t 6 A { b g #.4.H 7.&XZ.R I 4.#.c.z H W J T.}.-Xu.5.V.x.P P 8.*.` %.,.,.%.r b b b 7 b } &.} 8.g.K.F.K.&.-.&.K.L.B.6.L.Z.2.f.m.",
"- 6 6 e A V g d C H 4.R z P 9.r.M.(.R J W ~ 0.Y 0.3.3.3.2.F C V 9 u %.` b b 7 C K [ j d F L F K b S A ) A S [ &.| { j.f.{ n n M ",
"u i ` &.d.f.9.#.+X#X+XN.V.dXnXdXfXhX;X[.,XaXoXY.Y.,X3X,X#X;X!.e.^.H.b.@.@.G.K.K.C./.B.6.7.B.k.h.n.g.g.d.g.g.n.f.b.f.6XC.#.f.x./.",
"_ t | b.f.f.C.Z.&X{.Z.{.:XcXcX#XsXsX2XW. X4XY.Y.a.XX1X|.|.;X!.4.n.@.u 7 @._.5X5XC.6X$Xm.Z.$XR.Z.L.b.n.d.d.@.d.} 7 9 } P n 8.(.0X",
"m t [ &.C P 9.A.9.W 5.u.u.i.i.4.4.#.2.F G U l U 3.A.A.7.2.6.[ 8 b t t b b b [ &.S f.7.I o.7.o.L } C &.K S n } K I P P 4.#.#.c.e.",
"G._.5XB.7.V.*X#XtX=X=X,X=XtXtX@X8.8.x.8.m.Z.k.-X-X8X&XL.B.h.s.{ &.d.@.| 5 O $ h S 6.6.L } } L F } F 6.f.6.x.%X/.zXuXx.M.Q.x.C.e.",
"'.qX5X^.$XpXpX<XhX1X=X3XgXxXxXtX<XrX2X;X2X3X}.}.[. X+XT.N.Z.m.8.%X_.d.d.&.{ f.f.} 6.2.} } } } f.f.} 7.Z.m.$XiX&XlXuXx.R C.@X@X@X",
"S S h n 8.u.4.W ! T 5.[.T.N.{.|.W u.w.~ a.p.~ v / v ~ J ~ 5.4.I K { b b S K } h 5 g > > g j L m.OX7.6.Z.7.$X@Xx.r.M.I % Z 4.f z ",
": 7 C P d % G |.0.T.XX1Xa.1XtX|.;XhXW.|.,X,X.X,Xp.,XtXtX|.{.M.C.B.S K x.x.6.h.L.B.x.8.8.B.OXZ.x.F F V.R.V.Z.7.4.M.8.8.e.c.4.Q.R ",
"z.P h C I 4.N.,XhXtX1X,X XxXbXgXbXmXsXgXhXhXtXhX3XvXxXgXpXvXpXB.6.s.B.B.6.f./.$X/./.C.B.Z.*XeXeXV.9.V.Z.m.V.9.I Z.Z.Z.M.N.c.rXeX",
"V 8 9 g H R 5.y.i.! ~ J y.#XtX#XZ.*XL.R.&XeXZ.&Xm.Z.R.6X8XjXI. .l.&.K n C x./.x.P 8.B.C.C.Z.Z.m.f.} G 3.6.f.m.2.R 4.R H #.H t.c.",
"8 S { @.#.4.5.5.W ! y.W i.i.N.u.V.L.*XOX&X#X4.9.#X+Xk.7.L } } 6.o.} j.V.f.f.B.x.#.6.8.2.6.9.7.2.f.2.L 2.} 2.x.I 4.9.4.4.Z.4.9.W ",
";.%.{ @.8.M.M.9.u.p.#X|.2X#X<X|.#X|.,X X3X3X[..XE.sXsX|.y.[.A.5.R.V.$XyX*XL.OX$XZ.V.m.9.m.M.9.I I #.} x.8.6.B.2.B.OXV.Z.pXOXOXN.",
"A t 7 V P R I H ~ J Q w.N.{.#XW.5.~ ~ v ^ a.E..X! p.p.y.! [.N.A.*XB.6.o.} f.B.7.6.6.2.2.9.9.I d $ 5 K 8.6.6.f.o.m.Z.m.7.9.G 3.2.",
"w 6 V D S x R M.!.u.M.!.5.r.M.t.N.9.2.G W J 5.W J W W A.9.9.G n G 3.f.} g n F g } I C j F 4.8.2.K C 8.B.b.x.6.F 7.f.f.2.2.l 3.U ",
"' A A A b V C.cXuXdXvXnX!.!.>X;X#X*X+XOX&XA.Z.4.m.&X$XC.h.6X$XI.L.Z.Z.m.6.f.6.n 6.f.B.B.Z.&XeXyX^.x.9XuXlXcX0XL.K K #.B.$XL.8XB.",
"9 7 t V b ` C.uXK.wXlXrX>X2X2X>XA.iX+Xu.9.C.L.C P C.n.G.b.| s.b.#.7.x.f.8.2.P n n P #.f.$XuXqXL.^.n.%X/.%XjXzXz.D 8 S G._.`.g.A ",
"@.D D D S A | ;.@.D P $.$.R E z W 9.r.I j F h $ C { S S | ) ) [ b h P 9.8.C C #.C P #.6.d.f.s.{ C.@.@.*.D D +.D t = 6 u _ _ ` _ ",
"^.^.^.n.&.V b S D @.(.dXdXdXfX>Xt.4.m.4.8.Z.6.} d.} S S g.F.&.&.8.C I ^.0X(.L.%Xz.x.C.L.K.n.n.K.K.K._.uXg.D b &.v.&.-.A ` w _ ,.",
"x.^.%X^.{ 7 8 D + P 0XzXdXvXvXsX!.u.5.I x.&X9.h { b 7 8 &.b.S V #.#.&.b.%X0X%X^.b.8.d.C.K.f.g.B.g.K.K.K.d.&.[ %.%.%.:.u ' = e ( ",
"n P #.#.h $ 8 { b #.C.Q.c.!.>X|.N.r.H I m.Z.z.7 5 : 9 9 P &.7 8 O h P n g C S n z.} K &.d.} K [ ) M ) [ h.s.) : , , m , | , u ) ",
"S C C P I I &.z.#.c.!.!.M.M.!.;X@X@XM.:XrX(.%X(.I #.#.#.z.z.@.&.d.C.(.C.d.8.8.8.d.@.} g.K.K.b.d.g.&.I.7XjXI.g.) ` m ` ) :.' =.:.",
"8.#.I 8.x.x.x.m.8./.@X@X2X;X;XhXrX>X>XuX:XN.M.(.8.C.8.8.z.8.z.C.%X(.K.C.C.C.z.&.S [ &.z.P.5X'.K.qXB.P.yX7Xb.K.K.d.&.-.d.-.[ | [ ",
"#.I #.2.#.I I #.R r.H f m.@X!.!.Q.r.C.M.M.M.$.e.c.^.#.#.&.#.z.C.z.b.x.8.&.8.&.S S &.b.n.K._.P.b.$X[ S I.b.B.&.b { [ d.K.8.{ { S ",
"#.6.8.Z.c.c.r.!.x.c.C.(.!.M.C.(.$.c.(.%X(.C.C.C.C.x.%X^.z.#.P z.&.h 9 n._.K.8.b.z.&.&.g.d.[ &.K.C.8.I 8.H } { @.#.8.P C h 8.P g ",
"$X$X$X&XC.M.Z.eXrX:X:XiXlXdXiXuX`.(.9XwXwX%X(.%XuXwXuX%Xx.I V P @.D &.b.^.C.8.d.&.S ) d.g.&. .g.f.m.Z.8.P #.x.8.e.c.r.Z Z $.e.4.",
"6.x.C.(.z.z.M.:X^.M.c.C.C.x.8.*.^.n.C.9X9XC.z.n.n.C.x.C.8.P n h S D b.P @.@.{ [ d.[ S { &.` A S g $ C K 4.#.M.8.4.$.$.f z x Z f ",
": b { z.&.$.#.4.r.e.8.8.P 8 5 8 D A A D D b C @.@.@.5 b h h C b S D 8.7 7 S S S b 7 5 b S [ | &.&.h S @.8.P S 8 8 e.9Xc.Z 2 V $.",
"S @.&.b.z.x.#.E C.n.C.b.&.S m S 7 r 9 = # @ A ;.z.&.: : : S d.d.&.&.#.P S d.| @.S | @.| ` ) ` ) [ [ [ ) e { &.S @.$.*.n.z.z.$.*.",
"b m t S S *.@.P &.P D @.&.| ) ) 6 ` %.+.A A &.b.v.b.S { S f.g.d.8.d.@.b.g.K.;.{ = A &.@.| @.| ) g.| e m , | ;.;.;.&.D *.D D t D ",
"A ` S ` { n.n.n.V 8 8 ` %.%.| | A +.v.J.;.%.;.F.b.K.n.K.s.K.[ S b.n.@.d.z.d.v.@.G.'.'.F.g.v.;.` -.w - ] S.U.].].].%.w _ ,.' r 6 ",
"9 S S [ V @.@.{ 7 8 A { | [ | d.-.` ` ` A m %.P.g.b.g.b.| _.h.K.`.`.&.` &.` _.v.).P.;.t e ` ' u ( X.=...>.:.>.u ` 6 u ) -.u u A ",
"C #.h @.S O 4 # = = S 6.&.&.#.K &.S 8 e A ' ;.>.' ' | -.g.&.&.K.n.S &.) ' ` u = ' ' ( ( ] =.' w , e ` )  .S m > $ b S , ) e , * ",
"C h #.^.^.;.&.-.'.K.K.b.6.6.m.m.x.@.b e r u _ %.i ;.;.g.K.n.6.S { S &.S ;._.'.G.].H.>.:.D.].).D.g.@.&.&.d.} P h I } &.{  .[ F.S.",
"#.$ S %.@.;.| G.).g.&.{ F I 2.L K { { [ A A u t 6 H.H.%.b 7 { @.C b b : { _.qXkXkX7XG.g.F.P.G.d.b.5XuX_.5XiX0X7.2.6.#.{ n [ qX7X",
"8.@ 6 = * u A ;.;.S b n F 2.U d } 6.&.b 9 u A A u ;.A +     g K S C h h 8.C.L.0X/.L.C.b.h.d.&.P #.0XlXC.r.Z.N.I I 9.P S V [ 5XG.",
"r 6 u A A ' %.%.A b n j j I I k n I &.&.| A e 6 %.F.%.S &.d.b.z.5 C h K 6.6.} 6.6.f.B.m.k.9.k.B.x.x.r.4.c c J 5.4.M.P e.^.n.`.^.",
"o u A ' ' _ ' A : S f.f.o.3.q.2.P h b P { A ` g.` ;.&.&._.lX0X^.K.5Xz.#.} 8.f.6.3.3.3.2.I L 3.Z.m.9.R 5.4.5.5.u.4.r.P %XlX`.~.`.",
"o p u y u - - t O b f.9.I U 3.F j g C @.d.&.{ &.d.` S P 5XnX5X^.qXqXg.{ 5 P d.#.7.I F G F l G o.2.7.2.9.3.9.F k R I P ^.`.n.*.<.",
"X y p y p 3 * | G.C.Z.7.G 3.3.l 8.z.6.C S } [ 5 b > } @.f.x.K C.v.v.%.v.` @.b.d.8.I L 6.m.9.7.3.I L K k.6.2.F #.H S { *.A %.` r ",
"0 ; q 3 w - ' b.n.%X/.9.V.-X&X*X0XzXx.g K K b } b.S K f.6.} #.@.r r u _ >.H.G.;.g.b.d.6.B.h.6.f. .h.j.6.f.7.o.6. .S { | g.A w - ",
"1 y y - ; 6 %.).n.$XC.Z.&X6X8X&Xx.%X9.h C K K f.K d b } I H C V = 0 u p ' >.D.v.| F.F.&.&.d.6.[ M  . .B M n B [ [ b M m ) - ; . ",
"& a p p i %.%.K.[ 6.P 8.B.7.6.2.9.%X$X9.6.6.} 6.j.} K P H P #.@.r ( ' O.1.>.D.>.=.g.G.F.-.%.| [ |  . .[ B } 6.6. .[ | | ..s w - ",
". 0 ; w O.;.S { S { { P { n 5 b #.(.iXeX6X*XL.h.$XR.B.8.#.4.8.8.' O.O.=.;.;.' u %.) | -.) m S m | e N [  .j.h. .&.&.s.g.g.:.:.=.",
". X . . A t 9 b C S 8.b 8 b + b r.!.eXeX6XeX$Xf.f.V.Z.m.x.8.R H @.%.` A m A e = t e 6 * * m A + 7   O M [ S M N S [ |  . .-.:.:.",
"& ; r r ,.u b { b S &.b t A , S c.C.M.5.2.k.k.} L 3.7.9.9.4.R 4.x.C.z.{ b C { &.&.[ b 7 m &.&.m A b [ g.6.K C L } 6. . .) |  .-.",
"3 p =.<.v.&.@.&.P { [ @.;.` m ) C E I j F o.7.3.3.7.o.2.9.4.9.@X%XeX&Xm.2.2.f.B.I.j.{ &.h.g.&.&.&.b.K.C.x.8.2.8.7.B.j.6.S { | | ",
"0 i i _ A &.[ S n S + ` ;.- - o 5 E 4.F F G L L 7.7.7.m.V.4.4.@XOX#X+XZ.9.2.I j } f.#.n { &.K b V *.&.C P $.I C I 7.} K > n b M "
};
