/* XPM */
static char *_81a175f0654494cb6dc80f39239d86b5e1c83dozh3rGQtG[] = {
/* columns rows colors chars-per-pixel */
"64 64 256 2 ",
"   c #08060B",
".  c #351619",
"X  c #751606",
"o  c #6E5323",
"O  c #041152",
"+  c #252C48",
"@  c #01116D",
"#  c #083976",
"$  c #261E68",
"%  c #4D3B58",
"&  c #0B4D74",
"*  c #275068",
"=  c #6F6A4A",
"-  c #6F6570",
";  c #5E5A6D",
":  c #B73206",
">  c #9E2C14",
",  c #95510E",
"<  c #B3530B",
"1  c #946E12",
"2  c #B56D10",
"3  c #B1592E",
"4  c #936B24",
"5  c #B96F33",
"6  c #D3540D",
"7  c #E95707",
"8  c #F2580F",
"9  c #D96606",
"0  c #D77804",
"q  c #CB7312",
"w  c #E86800",
"e  c #FC6703",
"r  c #E97A05",
"t  c #F77904",
"y  c #E6751B",
"u  c #F87315",
"i  c #C85626",
"p  c #D0782F",
"a  c #F1772A",
"s  c #E24421",
"d  c #926B49",
"f  c #916E6D",
"g  c #A56E58",
"h  c #E77A4A",
"j  c #C76547",
"k  c #C53200",
"l  c #7A8660",
"z  c #7F811C",
"x  c #B88913",
"c  c #B9832B",
"v  c #A79614",
"b  c #D79804",
"n  c #D38D0C",
"m  c #E88707",
"M  c #F98706",
"N  c #E99703",
"B  c #F79503",
"V  c #E98815",
"C  c #F78A17",
"Z  c #E69717",
"A  c #FA9919",
"S  c #D9A903",
"D  c #C9B901",
"F  c #D7B210",
"G  c #E8AA03",
"H  c #FBA904",
"J  c #E9B905",
"K  c #FCB804",
"L  c #ECA919",
"P  c #FAA818",
"I  c #EDB913",
"U  c #D38F29",
"Y  c #F1902E",
"T  c #D3B02E",
"R  c #F7A628",
"E  c #F1B02E",
"W  c #D8CD0B",
"Q  c #E9C604",
"!  c #F9C704",
"~  c #E7D605",
"^  c #FAD702",
"/  c #FBDB17",
"(  c #E7D116",
")  c #EAE705",
"_  c #FBE705",
"`  c #F9F503",
"'  c #FBE919",
"]  c #FAF718",
"[  c #E9EB12",
"{  c #D6CD33",
"}  c #F9CB26",
"|  c #FCD626",
" . c #FBDE3A",
".. c #E9D037",
"X. c #D7EC2D",
"o. c #FDE828",
"O. c #FDF427",
"+. c #FDE936",
"@. c #FEF537",
"#. c #EAEB2E",
"$. c #DFE81D",
"%. c #B58C51",
"&. c #919372",
"*. c #AE8C71",
"=. c #91AB70",
"-. c #B6B271",
";. c #A7AF4D",
":. c #D3944F",
">. c #ED9049",
",. c #D5B051",
"<. c #F3AF4B",
"1. c #D59973",
"2. c #F28D6C",
"3. c #CEAC70",
"4. c #F1B26E",
"5. c #B3D171",
"6. c #B6D347",
"7. c #D5D94E",
"8. c #FAD957",
"9. c #EAD348",
"0. c #FDE947",
"q. c #F9F547",
"w. c #F9FC59",
"e. c #F2EC53",
"r. c #D3CC6F",
"t. c #D7F36D",
"y. c #FAE677",
"u. c #F6F46C",
"i. c #E7D769",
"p. c #05378C",
"a. c #1E2799",
"s. c #054999",
"d. c #065898",
"f. c #134E8C",
"g. c #375595",
"h. c #05659A",
"j. c #0B739B",
"k. c #0559A9",
"l. c #155AA5",
"z. c #0851B3",
"x. c #2757AF",
"c. c #026AA5",
"v. c #066AB7",
"b. c #0277B8",
"n. c #126DAD",
"m. c #2871B4",
"M. c #2F6B8F",
"N. c #506A8C",
"B. c #557EAF",
"V. c #736C9A",
"C. c #0954C9",
"Z. c #076AC5",
"A. c #067AC8",
"S. c #1170CA",
"D. c #2C72C3",
"F. c #2252C1",
"G. c #8D6A87",
"H. c #0482BC",
"J. c #1B80B6",
"K. c #3083B5",
"L. c #6E91B6",
"P. c #6796A2",
"I. c #0284C5",
"U. c #0E84D0",
"Y. c #2B89D3",
"T. c #6C91CB",
"R. c #77A8D0",
"E. c #5BA1E4",
"W. c #8D9194",
"Q. c #B69790",
"!. c #AEAF93",
"~. c #AFB6B0",
"^. c #969FA4",
"/. c #EF9B92",
"(. c #CEAE96",
"). c #CEB3B6",
"_. c #E6AE93",
"`. c #B7CAB7",
"'. c #B5CD8C",
"]. c #D2CD94",
"[. c #F0CF8C",
"{. c #FEF887",
"}. c #FEFA98",
"|. c #F2E990",
" X c #D1CFAF",
".X c #F2D0B0",
"XX c #F1EBB2",
"oX c #DCEDAC",
"OX c #869CD3",
"+X c #93B3D6",
"@X c #AEB0CC",
"#X c #92B8E9",
"$X c #B2BAE4",
"%X c #C6B2CA",
"&X c #FFB8D0",
"*X c #96C4D7",
"=X c #B8C6C9",
"-X c #B2D0D6",
";X c #8EC5E6",
":X c #BBD7E6",
">X c #B5CFF1",
",X c #B5E8EE",
"<X c #B9FFD7",
"1X c #D1D5CF",
"2X c #EED4D1",
"3X c #C9E4DA",
"4X c #D8E8D9",
"5X c #D3EFD3",
"6X c #FAE8CA",
"7X c #FEE7D7",
"8X c #EAF7DA",
"9X c #F9F8D9",
"0X c #EAEDCF",
"qX c #C5DAE8",
"wX c #C9D9FA",
"eX c #D6D9F9",
"rX c #D0D1E9",
"tX c #EBD4EE",
"yX c #CBE5E9",
"uX c #D6E8E9",
"iX c #D9F5E8",
"pX c #C9E8FA",
"aX c #D4EBF5",
"sX c #D5EDFC",
"dX c #DBEEFC",
"fX c #DAE7F8",
"gX c #CBF5FC",
"hX c #DBF3F5",
"jX c #D5F2FD",
"kX c #DDF2FE",
"lX c #DDFCFE",
"zX c #D5F9F7",
"xX c #C6F9E9",
"cX c #E5EAE9",
"vX c #FAE8E8",
"bX c #E8F9EA",
"nX c #FEFCEB",
"mX c #F6F8E9",
"MX c #E6E9FC",
"NX c #FDEEFF",
"BX c #F7E8F9",
"VX c #E2F4FD",
"CX c #EAF5FD",
"ZX c #E5FBFE",
"AX c #EBFBFD",
"SX c #E8F7F4",
"DX c #FEFDF4",
"FX c #FDF3FE",
"GX c #F4FDFE",
"HX c #FFFEFA",
"JX c #F9FEFE",
"KX c white",
"LX c #FEFFFF",
"PX c #FEFEFD",
"IX c #FEFEFE",
"UX c #F7F7F6",
/* pixels */
"KXKXKXKXKXKXKXKXKXKXKXKXKXJXJXJXDXDXDXHXJXGXGXGXGXGXGXAXCXVXMXMXMXMXdXhXhXZXAXGXGXGXGXJXKXKXKXHXGXGXJXKXKXKXKXKXKXKXKXKXKXKXKXKX",
"KXKXKXKXKXKXKXKXKXKXKXKXKXKXKXKXHXHXHXJXGXAXCXCXaXaXdXdXkXkXdXdXMXdXaXhXlXVXVXfXCXCXAXGXJXKXKXKXKXKXKXKXKXKXKXKXKXKXKXKXKXKXKXKX",
"KXKXKXKXKXKXKXKXKXKXKXKXKXKXKXKXJXJXGXAXCXVXVXdXkXkXjXjXjXjXjXjXAXVXkXsXjXkXVXSXhXkXVXCXAXGXJXKXKXKXKXKXKXKXKXKXKXKXKXKXKXKXKXKX",
"KXKXKXKXKXKXKXKXHXHXHXHXKXKXJXJXAXAXZXVXVXkXkXdXsXsXdXdXdXdXdXdXlXkXjXsXjXjXlXVXdXjXkXVXVXZXAXAXKXKXKXKXHXHXHXHXKXKXKXKXKXKXKXKX",
"KXKXKXKXKXKXKXKXHXHXHXKXJXGXGXGXkXkXkXkXkXjXkXkXVXVXVXVXVXVXVXVXjXjXsXsXkXkXsXaXjXjXkXkXkXkXkXkXGXGXJXJXKXHXHXHXKXKXKXKXKXKXKXKX",
"KXKXKXKXKXKXKXKXHXHXKXJXGXAXAXZXsXsXsXjXjXkXkXkXdXdXdXdXdXkXVXVXAXZXaXaXdXVXkXsXkXkXkXjXjXsXsXsXAXAXAXGXJXHXHXHXKXKXKXKXKXKXKXKX",
"KXKXKXKXKXKXKXKXKXKXGXGXAXVXkXkXdXjXjXjXjXkXkXkXjXjXjXjXjXjXjXjXaXuXuX4X4XuXkXVXkXkXkXkXjXjXkXkXkXkXVXAXGXJXKXKXKXKXKXKXKXKXKXKX",
"KXKXKXKXKXKXKXKXJXGXGXAXVXkXjXjXkXkXkXkXkXkXdXdXgXpX,X*X+XR.L.L.P.~.5X0XoX1X3XsXdXdXdXkXkXkXkXkXsXjXkXVXAXGXJXKXKXKXKXKXKXKXKXKX",
"KXKXKXHXHXHXKXJXHXGXVXjXjXkXMXMXMXlXZXxXNX5X,X=X#XV.V.W.T.x.z.s.z.7.] ' ` #.$.r. XrXwXyXaXhXVXMXfXdXkXkXVX8XmXFXKXKXHXHXHXKXKXKX",
"KXKXKXHXHXHXJXGXJXCXkXaXhXhXhXdXZXsXdXZXeX#XOXQ.g 1.<.M V 2XB.M.z.5.]  .o.+.` ] ) [ ].wXqXyXaXjXkXiXhXkXdXcXbXHXJXKXHXHXHXKXKXKX",
"KXKXKXHXHXKXGXGXVXkXaXhXhXhXhXjXxX4XhX`.B.W.%.p <.~.@X>.7 _.E.Z.k.5.] q.0.0.0.q.o.+.` $.].1XwXpXZXiXiXsXdXVXSXGXGXGXHXHXHXKXKXKX",
"KXKXKXHXKXJXGXAXjXjXhXkXVXkXjXjXpXbXL.a.S.(.w a h /.2.9 R `.d.D.z.!.` @.q.+.0.@.8.+.0.' $.]. X:XVXhXuXaXkXZXZXhXAXGXJXKXHXKXKXKX",
"KXKXKXKXJXGXAXVXjXhXhXVXVXVXkXaX0X!.d.F.C.(.t a r r :.].#XC.Z.n.n.^.` q.q.O.@.` O.q.0.u.O.[ ].%XwXfXkXaXhXZXZXaXVXAXGXJXKXKXKXKX",
"KXKXKXKXGXAXVXkXkXhXhXkXVXCX4XoX( 7.h.m.d.~.a y r _.OXY.k.x.m.m.k.L.O.q.q.+.0.+.q.@.O.` O.0.o.i.@XeXVXhXiXhXkXsXkXVXAXJXKXKXKXJX",
"KXKXKXJXGXAXkXjXMXhXjXjXkX4X|.9./ o.m.Z.p.E.&Xi Z 1Xx.k.n.s.k.x.l.V.#.o.' _ ' +.O.@.@.@.] O.0.` 5.1XeXdXhXaXdXkXjXkXAXGXKXKXKXJX",
"KXKXKXJXGXZXkXjXMXdXjXjXhXoX9.~ / _ P.k.D.j.).Y _.T.v.B.W.!.'.6.7.9._ ^ _ ` ` [ / o.@.q.q.#.] 0.X.'.>XfXZXkXsXjXsXhXAXGXKXKXKXJX",
"DXHXJXAXkXsXdXkX8XVXzXhX X~ o.+.o._ !.C.m.d.C.R.P.=.7.) _ ` ` ` ` ' / o.O.O.o.| _ _ O.[ ' @.O.@.O.#.@X=XgXjXsXbXkXkXaXkXAXJXKXHX",
"DXHXJXAXkXsXjXkXVXjXhX4X7./ _ o./ ` 5.C.x.P.=..._ _ _ ' o.| | +.' @.q.e.e.u.w.X.0.q.| o.] ] @.q.0.' r.rXyXjXfXSXkXkXsXkXAXJXKXHX",
"DXHXGXZXkXsXjXkXkX4XMX].~ +._ ' _ ` { = =.#.' _ ^ ' ' $.#.w.u.e.y.}.oXt.u.{.{.u.u.y.8.0.@.~ #.0. ._ ( %X1XyXdXCXkXkXkXkXAXGXKXHX",
"HXGXGXVXkXjXjXkXjX5XrX{ ^ ' _ ) ) ' o.~ ^ ^ _ +.@.0.e.u.}.}.}.|.u.].(.3.,.>.>.>.E Z R E 9.w.' _ +.O.` ].=X3XhXVXkXjXjXkXZXGXJXHX",
"JXGXCXVXjXjXjXkXjXcX].Q ^ ^ _ ~ o.( ^ !  .8.0.q.|.|.y.u.i.-.&.- & + X 6 t C n n U Z P m U 8.o._ _ +.` X.=X-XjXlXkXkXkXkXVXCXGXJX",
"GXAXVXkXjXkXkXkXiXtX{ Q ^ ^ ^ Q J ^ ' 0.u.w.w.u.t.5.&.; O O # f.g.d B B V :.Q.(.*.< m E e V q.$._ 0.o.)  X-XpXjXkXkXkXkXkXVXAXGX",
"GXCXkXkXkXkXkXdXjX X( } ^ ~ Q Q ! [ +.e.t.t.-.l * O @ s.s.p.m.;X:.V N :. XAXJXFXFX9X%.q R r m u.O. .+.' r.=XqXyXdXVXkXkXkXVXAXGX",
"GXCXdXdXjXkXkXdXVXr.../ ( ~ F I 8.u.u.8.;.; a.@ @ p.s.s.n.R.:X4X7 M 4.tXJXmX8XBXNXJXAX(.U M C Y G S G I W @XrXyXdXVXVXkXkXhXAXGX",
"VXVXVXVXkXkXkXkXcX XW I ^ D { e.y.{ U : > 3 g f +X#X;X-XuXAXDX2.t b XXGXZX8XvXNXJXNXKXBX:.N Y 0 r s 6 6 s h -X>XaXkXkXjXVXVXVXAX",
"VXVXVXkXkXkXkXkXbX3.W } J D 9.8.Y 6 u B B u u V (.vXGXZXKXKX6Xp r R 7XKXDXDXmXHXGXmXFXnX2XZ a t r 9 w 9 9 q !.:XaXkXkXjXVXVXVXAX",
"VXVXkXkXkXkXkXkX4X3.! I D ..E 0 r w q %.3.<.M C r >.7XmX7X6XXX<.7 L vXKXnX).!.kXUXDXKXmXMX1.M u r U 0 0 2 , W.>XaXkXkXjXVXkXkXAX",
"kXkXkXkXkXkXkXkXuX,.Q I T U m C 2 f $XCXcXcX[.G C 9 i.}.i.y.}.4.7 N 6XJX4X    P.bXHXKXZX8X3.M e Z ..! | ( n Q.:XaXkXkXjXVXkXkXAX",
"kXkXkXkXkXdXdXdXkX7.J F ..q r 9 d 2XGXuXcXGX7X_.M t E {.{.}.{.y.e m [.KXeX    W.GXmXFXGX0XS a e E q.' ' ] T ~.-XaXkXkXkXVXkXkXAX",
"kXkXkXkXkXkXdXdXdX,.J F E Y C X `.cXDXmXbXFXFXMX<.C Z {.|.|.|.|.e m T 7XHX%X^.vXKXnXHXnX[.N a y .Xu.o.( ) 9.@X:XaXkXkXkXkXkXkXAX",
"kXkXkXkXkXkXdXdXCXT D { L y V f pXGXCXVXGXHXHXAX[.y 0 u.|.oX8XBX2.0 0 <.XXnXUXKXHXnX9X[.R u 9 1.6Xe.' ) ^ } ~.-XaXkXkXdXkXdXhXZX",
"kXkXkXkXkXdXdXdXMX9.D T S u 9 ^.CXbXbXFXtX&.l W.,.A t _.FXGXAX9X&X0 u t <.2X0XFXFXXX XW Y 8 6 2XFXy.+.[ ^ ..*XyXaXjXjXdXkXdXhXZX",
"kXkXkXkXkXdXdXdXCX(.D ..V h w `.GXCXGX1X  ~.3X~.,.B r .X6X[.<.R R C 8 a m b R R I P M e 7 h .XDXnX0X) ..^ ..*X5XaXsXkXkXkXdXdXVX",
"kXkXkXkXdXdXdXdXuX1XG x < a w  XdXGXmX&.1XFXNXnX4.B r 2.,.S G ! W J B t 9 y 6 7 8 7 6 p 4.XXbXlXDX0X)  .^ { *X1XaXsXkXkXkXdXkXVX",
"kXkXkXkXkXkXkXdXzXcXy < < Y m 1.GXMXFXMXHXvXBXBXL m y C P P } ) J ! K R U .X).(./._..X0XmXKXFXFXKXrX~  .^ ,.*XrXsXdXkXkXkXdXkXVX",
"VXVXkXkXkXkXkXdXlX3X: 3 < 6 B p tXBXbXbXbXmX9X].Y y y V H K / ) O.^ K N U .XDXmXUXGXKXKXHXHXFXBXJX>XW +.Q 3.-XeXsXdXkXkXkXdXVXVX",
"VXVXkXkXkXkXkXdXgX4X: < i 6 M A 1.7XGXlXAX9Xi.Z t y q N H ! / _ } K B m Z 4.nXUXGXJXNXNXFXJXSXiXGX+Xv ' D !.-XfXsXjXkXkXdXdXVXVX",
"VXVXkXkXkXkXkXkXdXcX3 , Y Z 9 r Z ,..X7X.X<.A t n :.q N H E 9.} E L Y Y A :.nXAXKXKXKXKXUXmXnXnXAXT.v ^ T ~.-XuXjXkXkXkXdXdXVXZX",
"VXVXVXkXkXkXkXkXkXhXQ.1 F ( 9 3 Y A B m B C 9 9 tX2X2 9 q x D E X.W W G m U 6XnXFXFXDXDXJXJXJXJXpXf.4 Q -.=X:XuXjXkXkXjXdXdXVXAX",
"VXVXVXVXkXkXkXkXhXZXeXr.D W 4./.6 k 8 7 6 3 _.7XAXnX2 t C T W | E K ! H m 4.NXZXGXJXKXHXFXFXFXFX*X@ o S ~.:XpXhXjXkXkXjXdXdXVXAX",
"GXCXdXdXkXVXkXdXMXzXgX4XT Q ..1XtX].].(.2XMX0XHXCXmX3.2 Z L b F Q J G L 2 [.DXHXHXGXGXAXHXnXpX4.W.@ 4 c @XqXfXdXdXVXVXkXkXhXAXGX",
"GXCXkXkXkXkXVXdXVXjXzX4X].D ~ .XCX8XFXHXvXHXFXJXGXHX.Xc q L L b n L U 5 %.6XHXGXFXJXFXbXKXmX!.Z %.$ 1 v >X:XaXlXdXVXkXkXjXVXAXGX",
"GXAXVXkXkXkXkXkXVXsXiXuXcX{ W 8.aXBXFXAXGXBXFXZXVXKXnX[.c 2 n 0 q , , *.vXKXGXGXHXBXKXvXGXyXx P :.o ;. X>XxXiXzXkXkXkXkXkXVXAXGX",
"JXGXCXVXkXjXjXkXlXfXcXVXVX].W ^ =XJX0XSXAXDXHXGXJXCXKXnX.X3.:.:.5 1..XvXHXMXSXJXFXHXJXBXpX+Xm P S @XwXsXgXSXBXfXkXkXkXkXVXCXGXJX",
"HXGXAXVXkXjXjXkXjXVXMXVXzX4Xr.^ 6.eXGXcXFXbXJXFXKXKXGXGXJXHXvX6X7XvXDXmXJXKXHXtXVXJX3XeX*XN.A A b Q.@XwXgXaXMXVXkXjXjXkXVXGXJXHX",
"DXHXGXZXkXsXjXkXjXSXMXVXiXjX1X..) - eXBXBXGX5XnXmXKXGXAXAXAXAXGXJXcXUXDXmXcXHXNXlXyX-XOXN.% n R B S :.(.-XpXhXgXkXkXkXkXAXGXKXHX",
"DXHXJXAXkXsXjXkXdXiXkXjXiXhXfX X( ;.% MXuXaXGXmXJXSXSXGXGXGXCXCXGXGXJXJXSXCXCXeX>X@XOXf.+ 5 U P H <.H b ~.wXjXxXkXkXsXkXAXJXKXHX",
"DXHXJXAXkXsXsXkXkXiXlXjXjX5XhXwX.XD z * *XfXfXkXZXcXUXHXmXvXDXDXGXMXMXMXMXfX:X*X+XN.O & G.r T H E E R N 3.$X1XhXkXkXaXkXAXJXKXHX",
"JXKXKXKXGXAXhXsXsXjXjXkXkXkXdXaX4X].1 o % L.-XpXzXjXdXBXBXfXaXcXBXfXpXwXwX-XOXL.# . > ^.%.0 U P L P H b *.=XqXsXaXVXCXJXKXKXDXDX",
"JXKXKXKXGXAXkXjXsXjXkXkXkXkXkXdXlXkX!.v o . + B.OX+X-X,X,XuXaXgX,X:X-X*XR.L.V.% < , 3 g 1 0 b E L L P b *.`.yXkXaXVXGXJXKXKXDXDX",
"JXKXKXKXJXAXVXkXsXdXkXkXkXkXkXkX4XZXjX`.].%X@X`.R.f ; N.L.+X).%X@X^.*.p i 6 9 w f * * d 5 q M P L L P b Q.`.qXdXVXCXGXKXKXKXHXDX",
"KXKXKXKXJXGXAXVXdXkXkXkXkXkXkXkXNXcXlXgXpXsXCXbXNX@X3 > > : i e t e 7 w M a f g.d.d.& 4 < 4 b F P P A n Q.`.:XpXCXAXGXKXKXKXKXHX",
"KXKXKXHXKXJXGXAXVXVXVXVXkXkXkXkXgXyXMXCXuXzXpX=XP.* & = 6 i e a u C A h G.x.c.d.z.g.f.d < 3 U T P C V U !.3XgXkXAXGXJXKXKXKXKXKX",
"KXKXKXHXHXHXGXGXAXCXCXVXkXkXkXjX<XlXsXkXlXyX!.v = & p.z.; w M m a j - c.b.b.n.n.h.# p.M.4 < < 0 2 2 5 %.~.3XyXsXGXJXKXKXKXKXKXKX",
"KXKXKXHXHXHXKXJXGXGXCXVXkXjXjXjXZXZXxXzXzXW.&.*.s.* h.n.l.g.- ; c.v.b.n.x.l.k.k.& k.z.k.* f f *.!.!.). XsXlXZXFXJXKXKXKXKXKXKXKX",
"KXKXKXHXHXHXKXKXJXGXAXVXdXdXsXjXMXdXhXMXrX;.=.a.* s.v.n.d.h.A.Z.n.m.D.S.A.v.c.d.h.d.+ # m.*X:XfXgXgXdXhXgXzXUXHXHXHXKXKXKXKXKXKX",
"KXKXKXKXKXKXKXKXJXGXGXAXVXkXkXjXuXlXsXmXeX&.;.p.f.d.d.h.c.c.b.b.S.S.S.v.v.v.v.v.c.k.l.# L.-XuXSXsXjXkXVXAXGXJXKXKXKXKXKXKXKXKXKX",
"KXKXKXKXKXKXKXKXKXKXGXGXAXVXkXkXZXzXwXbX3XW.-.P.l.k.k.k.v.v.v.v.I.I.H.H.H.b.b.b.n.d.s.# L.:XyXVXkXkXVXAXGXJXKXKXKXKXKXKXKXKXKXKX",
"KXKXKXKXKXKXKXKXHXHXKXJXGXAXAXZXyXsXuXzXgX!.*.l l.k.k.v.v.v.v.v.b.b.b.b.v.v.n.n.h.d.l.f.L.-X:XyXAXAXAXGXJXHXHXHXKXKXKXKXKXKXKXKX",
"KXKXKXKXKXKXKXKXHXHXHXKXJXGXGXGXuXAXSXxXjX(.4 * d.h.h.c.c.c.c.c.A.A.A.b.A.b.b.v.v.v.l.# B.-XjXkXGXGXJXKXKXHXHXHXKXKXKXKXKXKXKXKX",
"KXKXKXKXKXKXKXKXHXHXHXHXKXKXJXJXFXGXAXzXMXQ.= A.d.d.c.c.b.b.b.b.A.A.A.A.A.I.I.I.A.A.v.# N.@XcXGXKXKXKXKXHXHXHXHXKXKXKXKXKXKXKXKX",
"KXKXKXKXKXKXKXKXKXKXKXKXKXKXKXKXDXJXJXFX Xg a.& D.D.S.S.Z.Z.A.A.U.U.A.U.A.A.H.H.v.d.d.B.:XGXKXUXKXKXKXKXKXKXKXKXKXKXKXKXKXKXKXKX",
"KXKXKXKXKXKXKXKXKXKXKXKXKXKXKXKXUXUXHXFX9X1X@XL.f.f.f.s.k.v.A.A.I.I.H.b.b.j.j.j.L.+XpXGXJXmXUXKXKXKXKXKXKXKXKXKXKXKXKXKXKXKXKXKX",
"KXKXKXKXKXKXKXKXKXKXKXKXKXJXJXJXGXAX9XFXAX8XHXBXpX>X#XR.L.K.J.J.I.U.Y.E.#X>XwXfXUXKXKXHXnXnXHXKXGXGXJXKXKXKXKXKXKXKXKXKXKXKXKXKX"
};
