/* XPM */
static char *_fbb06780782454deeb94d076f9a0838BRPhZMsX2yTYTjzf[] = {
/* columns rows colors chars-per-pixel */
"64 64 192 2 ",
"   c #863F23",
".  c #894027",
"X  c #8C452A",
"o  c #8C4C2B",
"O  c #904526",
"+  c #93462C",
"@  c #934A2D",
"#  c #994E2F",
"$  c #8D4F32",
"%  c #944D32",
"&  c #9B4D33",
"*  c #8E5937",
"=  c #945235",
"-  c #9C5336",
";  c #975835",
":  c #995936",
">  c #96543A",
",  c #9C553A",
"<  c #935A3A",
"1  c #9C5A3D",
"2  c #A54D37",
"3  c #A54E39",
"4  c #A25335",
"5  c #AD5237",
"6  c #A3553C",
"7  c #AB533C",
"8  c #A35A3D",
"9  c #A95B3E",
"0  c #96653D",
"q  c #9E623E",
"w  c #98693F",
"e  c #A3613F",
"r  c #975E40",
"t  c #9D5D41",
"y  c #A55740",
"u  c #AB5641",
"i  c #A45D42",
"p  c #AB5D43",
"a  c #A55E48",
"s  c #AD5F48",
"d  c #B25B44",
"f  c #B45D49",
"g  c #BA5F4A",
"h  c #9D6344",
"j  c #9F6945",
"k  c #9B6149",
"l  c #9F684A",
"z  c #A46245",
"x  c #AB6246",
"c  c #A66946",
"v  c #A96846",
"b  c #A5644A",
"n  c #AC654A",
"m  c #A56A4C",
"M  c #AC6A4D",
"N  c #B26245",
"B  c #B2654B",
"V  c #BA644C",
"C  c #B36A4D",
"Z  c #B96B4E",
"A  c #A5744C",
"S  c #A8714A",
"D  c #B2714E",
"F  c #A66D52",
"G  c #AD6D51",
"H  c #B46C52",
"J  c #BA6D53",
"K  c #AD7253",
"L  c #AF7A55",
"P  c #AE7658",
"I  c #B47255",
"U  c #BB7255",
"Y  c #B07857",
"T  c #BD7857",
"R  c #B67559",
"E  c #BC755A",
"W  c #B57A5C",
"Q  c #BC7A5D",
"!  c #B37961",
"~  c #BD7D61",
"^  c #C2664F",
"/  c #C6684F",
"(  c #C36D54",
")  c #C26F5A",
"_  c #C27456",
"`  c #C3755B",
"'  c #CB755D",
"]  c #C37A5D",
"[  c #CA7B5E",
"{  c #D27B5F",
"}  c #CC7761",
"|  c #C67B61",
" . c #C17F61",
".. c #C57D62",
"X. c #C57D64",
"o. c #C67E65",
"O. c #C47D62",
"+. c #C97C62",
"@. c #C97E63",
"#. c #CC7F61",
"$. c #C97B64",
"%. c #CD7B65",
"&. c #CC7F65",
"*. c #CA7D63",
"=. c #CD7F68",
"-. c #D27661",
";. c #D37B64",
":. c #DC7C64",
">. c #B4825C",
",. c #BC815C",
"<. c #B78061",
"1. c #BC8163",
"2. c #BD8264",
"3. c #BF8464",
"4. c #BE8567",
"5. c #BD8262",
"6. c #BF8A64",
"7. c #BF886A",
"8. c #C3815F",
"9. c #C28165",
"0. c #C48265",
"q. c #C18565",
"w. c #C28767",
"e. c #C58667",
"r. c #C48265",
"t. c #CD8363",
"y. c #CC8066",
"u. c #CC8565",
"i. c #CB8266",
"p. c #C48966",
"a. c #CA8866",
"s. c #C48768",
"d. c #C58469",
"f. c #C98168",
"g. c #CE8369",
"h. c #C98568",
"j. c #CF856A",
"k. c #CD866A",
"l. c #CB846A",
"z. c #C38868",
"x. c #C78A6D",
"c. c #C68E6D",
"v. c #C48A6B",
"b. c #C98A6B",
"n. c #CB8A6C",
"m. c #CE896C",
"M. c #CA8D6E",
"N. c #CC8A6C",
"B. c #D28567",
"V. c #D28365",
"C. c #D2806A",
"Z. c #D38668",
"A. c #D3876D",
"S. c #D2856B",
"D. c #DA856E",
"F. c #D58969",
"G. c #D2896E",
"H. c #D28A6D",
"J. c #D98A6F",
"K. c #C5926A",
"L. c #CB916E",
"P. c #D0916E",
"I. c #CC8571",
"U. c #C78E70",
"Y. c #CD8C71",
"T. c #D28D70",
"R. c #D38C72",
"E. c #DA8D74",
"W. c #D58E7A",
"Q. c #CB9072",
"!. c #CC9272",
"~. c #C99178",
"^. c #D09172",
"/. c #D79275",
"(. c #D39174",
"). c #DB9176",
"_. c #D19B77",
"`. c #DA9876",
"'. c #D5947A",
"]. c #DC9279",
"[. c #DB947A",
"{. c #D59B7C",
"}. c #DC9B7C",
"|. c #E08A6F",
" X c #E18570",
".X c #E48D74",
"XX c #E08E79",
"oX c #E09377",
"OX c #E2957C",
"+X c #E3997E",
"@X c #DE9A82",
"#X c #E49E83",
/* pixels */
"G I h K 1.K F K h P W P m m K K M t n G M I G t b G M M I H I 0.C 6 9 Z Z 6 - x 4 _ _ Z 6 - Z T c P K Y K m I M z E U J C C +.] ",
"M ~ I R 9.Q ~ ~ Q 2.x.Q.c.4.1.1.I I G R G b Q M M G M M I G I m.t.F.] t.#._ #.] S.F.] [ [ ] B.u.W c.q.4.q.e.n.R /./.+.O.` J +.&.",
"% H n n C n H H n z M Q ~ G b z M R z H z = E M E ~ R H I b z I i ] 9 9 p 9 ] x U B 6 Z ` C C x b q.w.Q K I  .R Q I x J U C E ` ",
"p ` J J ` J E E , , i a x 1 , , z H i M n 1 U M n Q Q I R I M H p ] C B C U A.U 8 x x ] | C H n 1 W Q W M z I H i n x R J x B x ",
"` %.J ' C._ J J J ' $.E J J ` ] H H H E o.o.| ] C f.o.H U o.O.| U ] | ] | O.| E C O.g.G.G.j.].T.b.z.Q M.^.0.h. .H h.j.G.u.] g.| ",
"J J u V ` s u u 6 B B y & 6 s n , , 6 i H H i a a R s % & i C H ] U | Q U H i i , n i 1 i n O.Q I M z W Q b M M z E H B i p E U ",
"V ` B J ` B B B C J J H B C H J H ] J J ] U J U J E J C U E | ).W.R.f.Y.h.R E E R ~ I R U R m.m.I Q Q h.Q n U ] f.j.E R C x E E ",
"s | ) J ) H J J | E ` f.f.| ` | ` ].U ` ' x ` ` J J J +.g.C x ] Q 0.M E R b O.R M R E 0.~ n R Q R 9. .h. .I ] ] E E C ] O.E *.f.",
"6 H s n C i n H n R U E G t z i x B & + + - C B 6 p & 9 N - 4 p H I = i b t R z t i t H H t i 1 1 Q n i , , E i i , % n x @ 9 C ",
"E 0.H H ~ E 9.d.Q 9.Q ~ R M W R H J x C J Z +.+.+.J.` ` +.] #.g.O.0.E O.f.0.T.l.E 9.E  .| E o.R R  .E 0.h.h.j.O.E O.E  .E C U R ",
"b G 1 i I G K G m K h h r r P Y E U C ` ` N C C J #.C p C Z ` E a n H I U Q E O.E 0.R H H I o.U I 8 x E j.O.C C R m.O.R C I O.I ",
"> m t m R m h < m F h h b m <.1.Z J B U J p x p B ] B x J C J J x C R R U R | f.J E C n x n E H J 8 , H ] C 8 , z R n , - z E H ",
"E Y.x.Y.^.~ Q W F P m K Y Y z.9.C ] U _ ] ] F.t._ u.] t.F.] ] O.] J.] u.| U E.J.&.u.` f.u.` &.+.A.J.U S.R.O.G.] ] S.O. .] ] G.j.",
"z R n b b 1 z M b M z F R K W K x Z n x N Z ] U - x - n Z 6 - 6 8 C # 4 - O B 9 x x i Z Z 9 x x a E 6 x B a +.H n J H ] R z n x ",
"H Q n n H M R Q R Q G R ~ Q 1.R 0.u.] ] ] U ] T U t.T ] u.T T _ ] [ Z U _ Z ] U Z U C _ _ C U C C ` B B C H f.` B H n R C 8 x x ",
"E f.U | R.G.R.G.o.o.H U ] E O.R U U C ] ] Z T T ` J.] ] f.] f.] u.] ] ] t.B.[ ` U +._ _ _ _ [ J u.+.] U ` +.| ] u.u.E T R U j.R.",
"p s 9 Z Z 9 p u B J f s s N ) B p 8 8 U E 9 p x B U x 8 - - n x Q M 1 M M @ - 9 9 N 9 9 6 & x p 6 9 4 N B p N 4 6 p - 8 , - T z ",
"f.A.O.f.&.| S.+.*.u.` +.+._ +.' ] O.` u.g.` &.+.+.*.` *.u.O.j.0.I Y M ~ N.j.g.U ' &.` ' _ J &.u.#.t._ [ V.[ V.[ J t.] t.T I r.e ",
"Y 5.Y M M K 1.Y M M b W Q M I I M I x B C n J C x x i E O.J H M M W I I Q f.+.a s J B J J B E J U U N N Z Z _ J ` t.[ J.8.I Q e ",
"L <.P P P K ,.Y Q 1.W 9.Q M G M n H x C C x H C x n x R ` C C z M 1.R M z x J p + 9 p J J a B i B B 6 N N N Z N 9 # + C x @ 1 ; ",
"0.e. .m.m.Q 0. .O.G.f.j.g.O.f.E E E J j.j.R E E E h.O.0.O.] g. .Y q.1.0.] Q G.S.B ' ' C.u.] u.+.u.J.+.J.E.Z.J.#.#.J U J.n.T h.a.",
"1 1 , M n , 1 , + 8 , 8 a x J x & % @ n n % % - - n i 8 4 9 H M 1 z t I U n C x s B 9 u 9 6 J J p n 8 C J B B 9 J J ] u.] ] ] M ",
"<.q.Q q.q.Q 9.Q 1.z.Q ~ ~ Q 0.] R E H O.0.I E R Q 0.E ] ] Q j.f.R Q R 0.0.H J B J _ C C B x ` ] M C p C J B J N p N J C i M M = ",
"Q.{.L.z.z.M.{.M.M.z.Q 0.~ I Q Q f.A.O.f.h.0.m.e.T.h.R h.j.Q ] E Q n.h.h.Q C ] u.' C.u.D.g.] f. .G.G.] +.u.u.J.C.J.+.u.[ T O.n.e.",
"W Q 1 z 1 = M z 1 1 - x x , i 8 a R x - = i M 1 z z 1 n z % i x M Q z X   - H x 9 9 4 C C 8 a x C I 8 % + % s i & 9 s E C = 8 n ",
"n j.+.O.` R +.C ` g.u.E.E.D.E.C.u.g.U U R R e.1.Q b.h./.T.| *.O.Q h.]  .E J ] _ U ' U u.f.R ] R  .0.I T Q R +.] U J C ` E n H I ",
"( E..X;.( ( ( V V -.' ' -.;. X} ' E H 0.0.I Q 1.K 9.0.h.0.E ] J f.0.Q G.g.J ' &.| C.` ` ` E 0.Q ~ Q I n.W.g.A.*.].E.` ` | f.m.E ",
"B V J N 7 & & 7 7 d 2 2 7 7 V d & % @ M M = = < 1 K m z 8 9 C i x 8 - x p + 4 x x H 4 @ + = b 1 1 1 $ b I n n 6 B E i @ , n H % ",
"1.0.b.b.m.N.b.m.0.h. .n.n.] f.O.` +.` n.N.1.z.4.z.{.^.n.h.g.].S.E 0.O.G.g.E +.+.C.E.*.` E ] b.Q w.z.Q 9.m.T.R.E | R.*.| *.g.R.| ",
"W 4.Y m K 1.x.Q M K K e.9.M m i ` ] C n M M 1.W h Y Y Q U C J x H O.E E J J +.' J +.] f.0.Q Q M ~ w.R R E | o.H E E E A.g.J ] o.",
"R q.m < = 1 R n z M M R U n n i B C 6 - = < m h < h z K M , i 6 x H x i 6 i J J i x a I R x n h m F z n n z n i i i , C x % , i ",
"0.}.h.^.h.R /.T.T.}.G.j.j.J.+XE.R.oXR./.^.b.!.w.z.p.~ n.h.U *.S.E n.j.R.G.f.J.g.S.f.E h.h.Q b.Y.0.e.0.W.T.| g.=.D.oXD.D.S.*.G.+.",
"z = o G R , > , i E i i 6 , H 4 6 4 - _ O.z 1 ; M Q C 8 p Z [ C i b n ~ Q z b z H Q M b n H  .R ` Z 4 f ` f 2 & f } d u 7 p [ d ",
"Q R G 0.n. .h.j.| f.x H E E g.J J N p ] 8.M Z D C T U ] ] U ` Z M I I 9. .H R G Q 9.I I I I ~ R N Z N [ C.) J J B ' B B B N _ N ",
"0.^.d.0.d.m.#X}.] f.] T.A.| A.&.J.).B.F.Z.u.`.`.P.a.T Z.B._ V.J. .n.0.b.n.d.m.~ d.n.~ n.n.~ n.h.p.n.b.^.Y.Y.^.~ O.l.m.T.T.n.a.] ",
", n i , % = n z . % , H a X % & - B 9 # @ - C v M e @ 6 6 @ 6 n , b 1 1 1 i n > = = $ z M 1 n M K L j < < m W $ h t m M M c q q ",
"o.G.f.G.f.] G.T.o. .E m.j.U U U T B.+.] ] T n.h.Q 8.T t.+.J ` U Q d.R I Q  .h.I R R I d.n.~ n.M.K.K.>.>.W c.{.! <.! <.1.1.,.W ,.",
"` | | E.E.o.T.W./.W.j.h.~ R 0.T.f.] ] ].).T 0.N.0.n.] ] ] T +.T o.0.I Q 9.9.d.R 9.d.Q d.d.Q d.e.w.6.4._.U.P ~ ~ w.x.O.~ ~ ] h.0.",
"i 6 & C J a n H n R ~ G 1 1 M Q 1 & @ C H - , 8 I T x 8 6 9 C x n z > z G b n 1 n H z i i i M z v D M Q R = % , n ` B B B N _ N ",
"E.D.| R.].j.R.G. .T.}.^.Y.^.^.Y.h.j.O./.}.R.R.0.n./.u.n.u.O.h.] j. .H d.R.0.9.Q ~ n.Q R R  .T.0.U u.E ] G.g.g.$.) XX} } } ' .X( ",
"J g.C J J H T.| n M b Q Q b G G m.T.R I  .m.).O. .O. ./.H.I H M G Y.R R E E W.I H I R m.h.H E Q ] Z.Z U | *.OX=.} +.` D.D.( _ _ ",
"B ` B x a i H n , 1 > b M z G M ~ Q z z n n C 8 8 z i M n , , % i U n n n H o.H n n i H H i i , 8 v X # , 1 U n a C C ` _ N N 9 ",
"E.OXE.R.R.W.).j.f.W.h.Y.R.^.#X'.'.^.0.T.'.T.W.A.g.W.m.T.T.n.T.9.0.j.o.o.o.f.T.j.o.h.E Q  .Q O.H p.p.I p.M.2.'.U.Q n.x.^.(.M.L.,.",
"H C H n R o.E H I O.I H G H | H I G b Q o.I E J H o.E U R Q d.R  .E | | Q E I E H 0.Q R I R h. .z S h 5.z.m Y F P 7.<.5.3.6.K.>.",
"i i n i n H M n n E n i i n H n R I n E R i a i x U n n M H ~ G , , i n n n 8 i i H n i , i H M ; z 1 Q Q t F h < l < * < 0 A w ",
"O././.Y.O.| m.Y.f.R.f.j.A.A.].T.n.Y.d.^.^.0.j.o.j.).j.Y.Y.Y.{.Y.U O.f.T.).).).T.W.).f.f.f.f.T.O.B.).+.J.T.| ).^.l.Y.2.1.4.5.!.K.",
"G 2.I G n z E H n H x J J C J H z K M H H H E H H H n R R M Y I n | H H U E j.E | E n H U C H B ( ;.V V f d ;.} _ ` H ` Q C T U ",
"Q w.h G Q Q W.U E E H | | n C C R h.~ R H H E H H H n R R b M G I G.H n z n 0.n n M n U H i H E V :.( ^ g f ;.) B n s E E i p i ",
"Q.Q.q.(.}./.}.G.A.R.+.u.u.| j.f.j.].}.#X).] m.R.G.j.h.T.e.0.^.0.e.p.P.}.}.L.e.e.0. .Q Y.n.R 0.T.Z.|.;.;.Z.).#X^.l.@X'.@X@X0.j.}.",
"m m 1 M M 8 i 6 J U B H C n R H - x J *.] p i 8 C M n I M n R c o o ; c M z z b M R R Q R b G b x Z B Z x : z z h W F b b > a n ",
"1.d.0.n.h.U ] ` ' +.U ] ] E h.O.n J ` R.R.E R C R T R  .Q Q d.T T U T ] ] U H R C E H R R G ~ ] ] ] J +.O.M M m F w.! I R R I.I.",
"Q M.b.m.j.f.R.j.] *.E O.0. .m.h.g.*.E S.R.u.G.j. .0.Q h.h.e.^.n.S.[ [ t.8.] ] [ *.O.` T.j.R f.W.u.#.` u.H.0.e.~ d.'.U.n.l.0.'.W.",
"% M M i 8 p C 9 9 a , i i 1 M n C p @ 6 x i M n 8 n 1 n M b H C U V N B B p p B 6 u a E H X X . - x 8 8 1 1 G M 1 t r M b , b a ",
"] /.G.u.O.+.S.U ] f.E  . .Q b.0.O.] H O.j.] O.] E h.R  .h. .e.f.[ _ ( ' ` J J ` +.E.E.OXE.| O.R O.G.] T T Q Y.9.R R R Y.Y.~ j.0.",
"J E C U E C H x `  .I R R I Q R U E H f.f.R R C I 0.I R  .U E ` Z V ( ' ;.[ #.S.J ] U Q E R j.j.j.j.E ] 0. .0.R n.d.O.n. .E 0.I ",
"s , + B J 4 9 i n H z x z 1 M z i x 8 C M , 8 , M T n M I n M C x p d V B p p x H C n R R z I Q x M n R I i n M n n i z , i I 1 ",
"' +.' D.A.' +.] 0.f.Q O.0.Q 0. .h.0.R f.h.] m.H.f.f.f.f.f.j.G.G.G.S.u.] +.R.G.d.Q 0.n.N.b.q.p.b.9.m.d.T.T.h.T.f.| f.R./.T.h.d.0.",
"` ` J ' ] J ] ] H H M T E M H C I R M M M M Q R n C E  . .R C x x R C C n b R K M M M K Y K c 1 M I G R R G I n n H Q ] T I I H ",
"J Z p Z H x U E x C n E E n C z M I b i i z I x 8 x H E U C 8 = % G t G G b 9.K h q h c M c q < h F b M G b G x i n H H M x b x ",
"} +._ *.u.] j.m.h./.R.).E.J.E.*.h.^.h.h.h.0.m. .f.h.j.j.g.f.+.O.x.{.w.!.^.n./.Q R Q 0.0.8.0.a.N.~ v.~ x.0. .j.o.| f.A.G.h.0.0.e.",
"9 u 4 B C 8 x z n ] J C C J ' B x M M R R z x 8 M n x p a x C H b m m b M G b , z z e 6 , 8 C T t b r b z t n i a n C C x x z v ",
"J J H | ] C I H H O.U C V ) } V C H M 0. .M C n C C H H J U E E t m R G H Q Q  .F.] J C Z U _ _ I ! F I I H ~ U H J U U C C C I ",
"A.A.+.G.j.Q 0. . .f.] C.C.' ;.' ] e.~ b.b. .h.0.f.f.j.S.S.S.u.g.9.Y.Y.l.0.f.R.A.OXE.Z.V.V.V.{ [ Y.~.7.U.I.f.W.R.*.u.S.u.0.8.r.a.",
"J J i n x , i z n x p ' ' u d N M R M M M H ] I Q E E R J J J J H ~ i n H n X.B 9 N V V 9 5 5 6 M F k b b a H C J J U J C C D U "
};
