/* XPM */
static char *_14a81a078be41b184ef6754836d3eecAi0u08w0QeFv2xIg[] = {
/* columns rows colors chars-per-pixel */
"64 64 250 2 ",
"   c #0B070B",
".  c #170A0B",
"X  c #0E0C11",
"o  c #130E14",
"O  c #190F12",
"+  c #161116",
"@  c #1B1315",
"#  c #161319",
"$  c #1A151A",
"%  c #1B1A1C",
"&  c #151A17",
"*  c #061512",
"=  c #221B1C",
"-  c #2B1C1D",
";  c #221516",
":  c #210E10",
">  c #28231F",
",  c #32231C",
"<  c #1E1C22",
"1  c #231E21",
"2  c #2C1D20",
"3  c #1C2727",
"4  c #232224",
"5  c #2B2423",
"6  c #2A272A",
"7  c #2C2A2C",
"8  c #262828",
"9  c #322425",
"0  c #332C2B",
"q  c #372A29",
"w  c #2B322D",
"e  c #25332D",
"r  c #35312D",
"t  c #3B312E",
"y  c #3A3B2E",
"u  c #2E2D32",
"i  c #212E36",
"p  c #312F32",
"a  c #2D3433",
"s  c #2D3A35",
"d  c #29363C",
"f  c #293539",
"g  c #343334",
"h  c #3C3433",
"j  c #363936",
"k  c #3C3A36",
"l  c #343D3B",
"z  c #3C3B3B",
"x  c #363539",
"c  c #17201D",
"v  c #45332D",
"b  c #423A35",
"n  c #443D3A",
"m  c #4A3E3D",
"M  c #473936",
"N  c #523A2E",
"B  c #36403D",
"V  c #3C423E",
"C  c #2F4038",
"Z  c #43423E",
"A  c #4C423D",
"S  c #434334",
"D  c #5A453D",
"F  c #6D4C37",
"G  c #2D3A42",
"H  c #363E42",
"J  c #483E40",
"K  c #3C4543",
"L  c #3D4945",
"P  c #3D4A4C",
"I  c #364447",
"U  c #3E4C51",
"Y  c #444443",
"T  c #4B4442",
"R  c #454A44",
"E  c #4C4A45",
"W  c #444C4A",
"Q  c #4C4D4A",
"!  c #464648",
"~  c #524644",
"^  c #534B44",
"/  c #5C4D46",
"(  c #534D4A",
")  c #594D4B",
"_  c #51464A",
"`  c #45514D",
"'  c #4C524C",
"]  c #4E5046",
"[  c #535246",
"{  c #53524D",
"}  c #5B534C",
"|  c #5B5649",
" . c #414F53",
".. c #445354",
"X. c #4C5552",
"o. c #4D5A55",
"O. c #4A5659",
"+. c #4D5B5B",
"@. c #475758",
"#. c #545552",
"$. c #5B5653",
"%. c #545A54",
"&. c #5B5B55",
"*. c #525D5A",
"=. c #5B5D5B",
"-. c #56565A",
";. c #664C47",
":. c #62544C",
">. c #68594A",
",. c #775A4A",
"<. c #625A54",
"1. c #6B5B53",
"2. c #635D5A",
"3. c #6A5D59",
"4. c #655653",
"5. c #745D53",
"6. c #765E56",
"7. c #764E44",
"8. c #55625D",
"9. c #5C635D",
"0. c #5E6156",
"q. c #77644B",
"w. c #636155",
"e. c #63625D",
"r. c #6B625C",
"t. c #6A675A",
"y. c #7C6355",
"u. c #72645C",
"i. c #73695E",
"p. c #7C6A5C",
"a. c #796657",
"s. c #6F604D",
"d. c #565E62",
"f. c #4F5D60",
"g. c #556362",
"h. c #5B6562",
"j. c #5D6A65",
"k. c #5D6C6A",
"l. c #576767",
"z. c #4E6264",
"x. c #646561",
"c. c #6B6662",
"v. c #646A64",
"b. c #6B6B64",
"n. c #626D6A",
"m. c #6D6D69",
"M. c #6A666A",
"N. c #736B64",
"B. c #7B6D63",
"V. c #736D6A",
"C. c #756864",
"Z. c #65726D",
"A. c #6C726C",
"S. c #667367",
"D. c #747166",
"F. c #7B7164",
"G. c #73736C",
"H. c #7B726B",
"J. c #7C7A6E",
"K. c #76786E",
"L. c #667572",
"P. c #697672",
"I. c #6A7571",
"U. c #6E7A76",
"Y. c #6D7A75",
"T. c #6C7C78",
"R. c #747671",
"E. c #7B7672",
"W. c #747B74",
"Q. c #7B7C75",
"!. c #717D79",
"~. c #727E7A",
"^. c #7C7E79",
"/. c #747379",
"(. c #676D72",
"). c #665F66",
"_. c #855B49",
"`. c #845D53",
"'. c #80654D",
"]. c #866A5A",
"[. c #976A58",
"{. c #837458",
"}. c #996E58",
"|. c #846D63",
" X c #8A6F66",
".X c #847264",
"XX c #82746B",
"oX c #8A776B",
"OX c #8C7B6C",
"+X c #877768",
"@X c #947868",
"#X c #837D74",
"$X c #827E7A",
"%X c #897B73",
"&X c #937E71",
"*X c #A27563",
"=X c #7D8075",
"-X c #76827E",
";X c #75827D",
":X c #7C837C",
">X c #7A8A7D",
",X c #6F847F",
"<X c #828376",
"1X c #83847D",
"2X c #8A847A",
"3X c #86887E",
"4X c #898B7F",
"5X c #898174",
"6X c #988476",
"7X c #9E816F",
"8X c #A28973",
"9X c #7A8682",
"0X c #7A8581",
"qX c #7D8985",
"wX c #7E8A85",
"eX c #768884",
"rX c #7D9188",
"tX c #828681",
"yX c #898682",
"uX c #848A83",
"iX c #8C8C84",
"pX c #828E89",
"aX c #8C8D88",
"sX c #938C84",
"dX c #958E88",
"fX c #8E9086",
"gX c #85918C",
"hX c #8B928B",
"jX c #8A9A8E",
"kX c #93948B",
"lX c #97998E",
"zX c #94958A",
"xX c #899591",
"cX c #8D9A95",
"vX c #879691",
"bX c #959B93",
"nX c #9C9C93",
"mX c #919D99",
"MX c #999793",
"NX c #A48D84",
"BX c #A49C95",
"VX c #AC998B",
"CX c #9AA19A",
"ZX c #8CA094",
"AX c #A3A59C",
"SX c #A2A196",
"DX c #BBA58E",
"FX c #A6ABA3",
"GX c #AFB4AA",
"HX c #9CA8A4",
/* pixels */
"i G U  .U  .d.(.g...I +.+.g.g.U.T.P.n.h.Z.9X9XP.wXY.!.wX-X9XxXcXZ.n.o.X.Z.!.Y.9Xn.Z.Y.!.Y.P.n.h.P.L.8.@.U.h.j.+.o.X.L l B K l w ",
"i d G G d f G I O.P I ........+.n.h.8.j.n.j.8.o.P.P.Z.n.P.wX9Xn.h.` o.*.L o.n.8.Z.h.j.P.Z.8.*.j.Z.U.h.8.Z.g.j.g.8.*.X.L K L B a ",
"i i d G I U ..O... ...+.k.k.k.k.~.Z.n.Y.!.P.Y.9XP.!.-X9X9X!.Y.!.wX-XP.P.9XwX-X-XY.j.h.n.n.8.8.Z.g.Z.8.8.*.@.+.8.8.*.' K B V l e ",
"G d d G P  . .P +.O.g.+.k.l.k.g.n.h.h.j.j.n.Y.9XZ.!.-XwXwXP.Z.pXn.P.h.h.-X-XZ.Y.-XP.n.n.P.Y.Z.j.Z.;Xj.L.h.j.j.n.j.j.8.X.W ` W K ",
" .U I P ..@...P g.+.g.+.k.l.L.k.P.!.-X!.Y.!.!.Y.P.wX!.Y.wXxXpXwXY.Y.pXgXP.Y.pXwXY.j.8.h.P.P.j.@.Z.L.8.Z.8.j.j.8.o.*.o.W K L L K ",
"G d d G U @.O...l.+.*.g.L.L.T.T.n.P.P.n.Z.-X-XY.9X9X-X9XxXmXxXxX9X9XpXwXY.P.Y.!.wXP.Z.-XwXY.Z.P.;X;XZ.Y.Z.Z.Y.n.h.j.h.o.W ` ` W ",
"P P P ..+.g.l.l.l.+.O.k.k.k.g.j.Z.j.8.h.Z.-XwXwX9XP.Y.gXgXwX9XwX-X-Xj.8.!.Y.8.h.P.n.Z.P.n.*.8.Y.P.Z.Z.Z.h.*.P.j.h.j.h.' K B B l ",
"G G I P ..+.*.g.l.g.g.eX9X;XZ.T.-XZ.n.!.wX9X-X-XxX9X9XxXCXFXcXZ.gXY.P.Y.Y.9X9XZ.!.pXxX9Xj.h.!.cXZ.Z.!.L.h.X.P.Z.n.P.n.o.K l l s ",
"P P P ..+.f.+...g.l.8.@.+...@.k.8.*.*.n.!.9X!.P.j.-XY.Y.P.Z.9X!.P.Z.P.P.Y.X.o.` 8.n.j.j.8.` o.` 8.j.*.@.L B X.*.v.o.' a 8 8 & & ",
"....O.f.l.l.l.g.g.P.L.k.L.;X;X9XgX9XY.!.wXxXxXpXpXmXmXCXmXcXCXmX9XpXwXxXxX9XY.h.Y.Y.n.Z.P.Z.P.j.j.P.Z.L.Z.j.Z.j.I.9.o.l l Y l l ",
"d H I P P W ....P g.*.` 8.Z.h.o.P.Z.j.h.h.n.P.Y.Z.Z.-X9X9X-XY.!.o.Z.n.!.h.h.8.8.n.n.*.8.h.h.n.h.Z.Z.8.8.n.n.9.l v.W z g l Y z Y ",
" .O.f.g.g.g.k.L.g.P.Z.k.;XvXgXwXj.P.9XwX9XwXcXHXgX9XcXmXmXmXpXcXxX!.*.P.9XwX9X!.!.9X!.!.Y.Z.!.!.h.9XwXY.h.8.I.I.n.W l K Q W V K ",
"I P W ......*.l.8.g.@.@.Z.T.Y.;Xh.j.Z.P.P.Y.!.-XpX!.wXwXpXgX9XxXgXj.W g.-XZ.Y.Y.Y.9X-X-XY.n.P.Z.%.I.Y.Z.*.X.j.n.v.-.W W X.W z 8 ",
"....O.+.*.l.n.L.Z.Z.8.8.Z.Z.Z.;XpX!.Z.P.-XwX9XY.xXwXwXpXgXxXgXxXwX!.-XwXgXj.-XgXpXpX9XwXpX-X!.n.-XY.h.Z.!.P.j.W =.v.*.W Q Q V & ",
"I l l I P ..+.8.o.h.8.@.8.j.j.P.n.h.8.n.9XpXwX-X!.-XY.!.9XwXwX!.9X-XZ.!.-XP.Y.Z.wXwX!.9X9X!.-XP.P.P.Z.-X!.j.n.P.v.I.h.9.=.#.X.j ",
"O...W O.g.n.L.L.h.-X-Xn.Z.P.Z.Z.v.P.9XgXgXpX9X;X9XhXwXhXmXcXmX;XqXxXW.W.v.W.~.Y.P.T.L.L.n.j.R.R.~.I.v.I.h.W 9.W.h.*.W 9.=.K W W ",
"s K W K P *.j.n.o.Z.v.9.9.Y.pX-X0X~.:XW.pXqXpX:XuX:X0XY.0XCXpXW.jXZXCX:Xm.R.m.!.L.eXeXL.Z.^.yX^.1X^.S.W.R.j.j.9.v.9.` 8.j.@.o.L ",
"W *.n.n.g.*.g.j.j.9.%.v.v.%.j.Z.v.%.%.9.:X:X:XR.~.:XhXjXuX:XR.:XL.S.gXkXE.=.Q h.gXeXT.eX-XR.M.N.R.G.e.e.%.Y %.j.8.%.8.o.` C e s ",
"W +.j.n.*.o.g.I.~.h.%.W.~.h.Y.gXtX~.~.:XbXbXbXhX:XCXFXbXuXtXbXbXFX>XjXAXiXG.c.A.CXrXeXcXmXtXE.$XkX3XA.A.b.e.A.A.A.9.Z.S.h.8.L ` ",
"K W X.d.*.X.*.n.!.Z.v.~.-XZ.Y.~.:X:XtXtXuXuXhXhX:XCXbXuXtXhXFXbXjXS.b.G.r.H.yX1XY.;XrXgXqX^.E.E.m.b.9.v.b.9.&.' 9.%.9.8.o.W s s ",
"W W o.v.n.=.X.X.x.Z.I.tXuX:X:XA.1XuXiXhXhXkXbXbXhXbXjXAXFXbXCXCXFXnXnX2X} } V.e.b.:XgX:XW.~.G.e.c.Q.Q.<XR.x.b.9.e.A.A.W.v.W X.%.",
"W W W +.h.h.*.%.v.n.v.I.R.A.:XhXuXtX^.tXtXhXtX1XuXkXhXuX:X:XuX1XfX2X#X#Xr.r.%X5Xe.v.v.A.I.A.x.#.w.b.w.2.&.#.=.{ %.9.{ 9.=.R %.X.",
"W W K K W %.=.=.v.v.%.%.' Y 9.W.:X:XW.:XW.1XW.W.bXCXCX:XR.uXhXiXkX#Xr.H.XXXX6X6XD.b.A.=X:X^.G.m.2X2XC.t.b.G.Q.b.kX1XA.A.R.n.h.*.",
"W +.*.X.W ' ' R ' v.v.b.%.' 9.v.e.A.A.^.A.^.^.uXbXaXbXiXiXkX1XiXBXdX.XoXXX5.u.u.F.J.#XQ.D.e.0.9.t.H.c.<.$.$.b.e.tXA.A.x.9.9.' 9.",
"Q W =.%.h.x.n.m.{ v.b.e.m.G.G.W.Q.iXkXAXbXkXGXFXbXkXkXiX^.W.kXGXBXNX%Xy.5.&X6X>.u.p.F.F.J.Q.G.e.w.E.#XV.$.e.yX^.m.e.x.A.h.R K %.",
"l z %.-.' Q R &.R 9.v.v.A.G.A.A.W.=XfXlX1X=XiX3XuXfXhX3X^.^.1XsXVX.Xy.a.a..X+X].y.p.p.a.B.#X3X<XG.E.H.H.r.r.E.b.&.b.^.1XW.x.%.Q ",
"8 g Y %.' %.Q v.e.W.^.W.1XuXuXhX3X1XlXnXiXfXlXnXzXAXAXnXCXAXFXSXNXNX&X.XOXVXDX8X7X7X@X|.p.F.H.D.N.N.c.V.b.V.E.&.m.W.A.%.Q X.X.R ",
"8 7 7 a V %.Q &.9.v.9.%.e.A.^.fXzX1XlXiX=XiXiXzX3XiXiX3X3XiXfXsXoX6.,.a.{.+X@X@X}.@X].'.y.i.r.$.$.$.$.r.c.G.^.e.G.^.W.9.%.=.%.R ",
"j z z > R v.m.R.G.W.m.v.G.Q.3XCXfX1XnXzXiXlXzXlXkXfXkXiX=Xb.b.H..Xy.,.q.{.'.'.].*X*X}.[.@X6X%XD.J.c.w.b.&.E $.{ &.9.x.v.x.9.o.W ",
"4 g j & Z &.v.Q.A.W.K.W.1X=X=XkXb.b.3XzXkXlXzXiX4X4XkXlX3Xb.0.r.y.@X].>.q.{.'.F *X}.[._.6.p.i.w.<.E { G.x.Q b.=XR.v.9.9.h.%.X.%.",
"Y Q #.Q v.v.%.G.G.W.K.Q.1XW.K.iXiXiXzXAXCXnXSXfXfXfXzXlXfX3XK.F.OX@X{.{.{.q.F F _.[.[._.,.y.B.D.c.e.b.Q.b.{ x.b.m.9.=.8.%.L w 8 ",
"Q ' Q m.uX=X] b.Q.Q.G.G.W.A.G.iXkXiX1XkXiXkXFXnXFXAXnXiXiXfX1XB.p.8X@X,.q.p.,.F F _.*X}.`.6.]..X:.D.J.K.b.A.^.9.Z.n.j.j.h.X.B e ",
"Y %.9.%.&.b.m.2.{ V.R.1X^.1XW.kXkXBXMXdXQ.SXnXE.sXnXsXsXkX2XiXdXNXoX XoX+X&X&X].y.].@X@X[._._.,.>.>.w.| E ' L ....@.+.+...I s e ",
"' 9.v.9.=.e.&.{ &.V.R.=X1X1X^.aX$X2X1XdXQ.kXnXBXsXkXQ.H.#XJ.Q.%X|.&X|.6.|.p.1.|..X|.].].].[.[.[.@X{.s.S y %.h.L.l.l.z.z.O.P B s ",
"' ' ' %.x.A.m.x.#.b.G.b.Q.1X:XQ.iXiXiXdXG.E.yXnXlXkXV.b.G.G.E.#X].].].|.p.|.oXoX1.5.5.5.'._._.,.q.,.5./ ^ { K I ..U U ....K a 4 ",
"%.' ' ' #.&.2.e.E 2.b.#.A.1XuXb.Q.4XzXzX1X1XiXlXnXzXG.b.Q.=X<X5X.X5.y.|.p.oX6XXXi..XOXoX].,.,.'.@X,.y..XXXc.#.=.n.d.O.O.+.o.Y x ",
"j Y ] ] Y Z E $.T Z { Q b.G.^.b.b.b.K.<XiX3X4XfX<X<Xt.t.Q.Q.Q.J.y.].,.>.u.1./ <.| :.:./ N N D F _.F F ,.6.3.<.M./.v.-.#.=.x.d.&.",
"> w Z { e.b.c.2.2.T ( m.^.R.^.uXnX=Xt.e.J.D.<XlX<X4XK.=XfXiX4X2X&X7X6XoXF.i.B.J.N.C.r.r.u.u.p.y.,.7.,.;.;.1.) ( =.-.-.-.-.#.Y j ",
"j z Y ( c.Q.G.<.$.k Z e.e.=.x.G.4Xi.[ S w.&.i.<Xb.K.t.D.J.D.D.F..X].OXOX>.r.J.D.&.&.w.w.w.w.<.>.|.].].;.D ;.~ _ ).M.(.M.d.! 7 % ",
"k ( $.T n } 2.r.N.c.c.Q.c.Q.^.^.J.2X2XJ.lXsX5XJ.#XsX#X#X2XJ.#X5X6X6XOX.X+XD.b.K.e.v.x.&.Q E } r.6.`.|.6.;.4.) $.-.=.=.-.X.W ! Y ",
"h k k h h m ) 2.) V.e.x.E.Q.^.b.F.#Xr.B.2X2XsXsXB.#XB.F.i.XXi.>..Xa..Xp.F.#Xb.A.G.` 4 j ' Q #.) N N ;./ v t m T z Y W W K K l e ",
"h b h t q 9 q h 9 _ <.b.E.m.b.G.r.i.B.F.XXu.:.1.1.B.%XH.B.H.%X%X.Xp.p.t.w.w.0.v.9.%.L ' %.%.&.( :.D D :.:.<.&.{ Y a 8 a B s 3 & ",
"5 > = @ ; 2 v m m ) 2.e.b.&.j r t v ^ M M M v 1./ v , . q A u.i.>.p.XX5XJ.b.A.v.%.Z.n.9.=.h.v.$.:.:.:.:.) Z Z { 7 w 8 c 3 e 3 * ",
"m b 0 - - 9 t M 9 t b 0 E m.e.c.C.F.H.| ~ ^ ^ i.M ^ r.C.XXH.XXXXp.XXw.w.&.] =.o.8.Z.n.%.X.=.x.&.) ^ M A } A k T Z Z z a a B l a ",
". . ; ; - - - - h ~ <.T ( e.#.e.e.2X#XN.c.w.<.[ 2.t.N.J.c.t.<.<.i.r.A E %.%.Z.h.*.+.o.` W Q Q E n A M b n r 5 k e.g 4 j K 7 4 7 ",
"- - - 9 q q 9 - - q b b T Z r k w &.{ %.e.$.{ k E E Z %.E R > @ ^ A r k { 9.n.h.g.X.+.*.=.#.Y T Z $.2.^ t 5 0 n ( h 5 7 4 X   o ",
": . . ; q M ~ ) ) ~ 0 5 Z ] =.v.9.v.9.9.x.%.R Q 9.v.W.tX^.A.A.=XiXV.} Z Q *.*.g.n.*.l.g.9.=.E { <.2.<.) ^ } } n h T T 9 + + $ o ",
"2 - - 9 v J T T 0 ~ h 5 h Z &.&.Q V ] { &.' V v.A.9.A.A.:XA.A.b.<.^ { E ' 9.*.h.v.*.9.Q ! { E $.A _ ^ b , t t ; - 9 9 ; o O o   ",
"6 1 4 0 7 5 b 2.E.$.5 0 h 0 t > n Z Z Q { k j #.x.E &.#.$.&.k E #.Q Q &.e.9.&.&.{ &.{ _ ( A b m A b b A T n m _ h 0 5 - 5 4 1 = ",
"4 % 4 p g 7 Y x.2.( 0 0 A _ ~ n n T { &.( h h { n $.&.e.$X$.= 5 #.Q Z R %.0.[ S y S b M A t ; . @ 5 t 0 @   @ 0 9 5 = ; = 1 - = ",
"u 7 u x g 7 g E E E b 0 ^ C.4.) b r b { $.$.&.e.c.c.2.V.G.e.2.$.&.e.x.&.&.0.&.[ ^ E b b ^ ~ h q 0 t b b 5 @ @ > - ; @ @ $ = = $ ",
"7 7 u x g 7 p n h T T 9 A C.^ A V.( T ( E E T k V.2.c.c.$.$.2.( E &.e.%.] ] [ [ [ | ^ ^ } ~ q 9 b h t h h q = . @ O . . . . .   ",
"u u p x g 7 7 0 h T ( t A r.~ n $.E { 2.$.$.2.&.e.b.E.e.m.V.E =.&.{ { &.e.&.| | | <.} ^ } T h b ) &.2.=.} E T m g g p 0 4 1 = = ",
"g a g g p 7 7 7 0 k A h b ^ A b E E $.e.c.e.$.E ( Y 2.E T &.T #.&.Q ] &.e.} [ | [ | ^ A ~ A n ~ 0 b Z k r 0 q 7 7 0 0 5 = + o o ",
"< 4 6 u z Y E E 2.$.2.N.<.<.C.<.b.m.b.E.yXyXE.V.yXG.MXaXc.Q.$Xb.m.G.G.K.G.N.t.i.2.N.V.H.E.3.J h T E Y k k n h q 4 7 0 6 1 + + + ",
"4 6 6 p H Q $.$.2.( } c._ b :.T e.V.x.$.2.2.2.V.c.G.V.e.&.e.V.m.Q.R.b.t.G.#Xi./ / <.<.3.V.2.m 0 E E T h h k h 5 = 4 6 6 = + + # ",
"x 6 ! #.! ! Q #.2.V.<.N.V.c.%XV.iX^.Q.$X$XR.m.V.R.Q.^.^.Q.G.m.x.x.m.G.G.#X2XH.<.} } ^ M b n b h T k k k 0 r g 4 + + + + # + o o ",
"x u x u z n 0 g r Z m T $.c.3.A T &.2.#.( $.x.m.x.m.m.x.2.e.x.x.=.e.e.<.<.<./ M / :.4.^ T _ { #.Z Y Y h 4 = 1 % 1 1 % $ # + o o ",
"8 u u 6 ! #.Y $.$.b.$XE.H.$XH.N.yXtXQ.G.R.1XuX1XW.b.&.{ Q E Q { x.=.$.} <.r.1./ 1.u.u.^ b h j j 0 g r 0 7 = % 4 1 % # o         ",
"u g x 6 7 g 0 T E { <.2.<.<.C.2XiXm.&.=.v.x.&.{ 1Xx.{ %.=.#.{ &.G.m.c.2.<.1.6.u.1.u.u.} A n Z z z r 4 7 k 4 + 1 7 4 1 # o o # % ",
"4 6 x 6 4 ! $.{ 2.e.$.V.H.r.XXH.Q.Q.Q.^.R.b.b.R.m.x.=.&.#.{ { { E { $.) A m / 6.:.1.:.^ T Y Z j j j 6 6 z x 4 4 % # X       o # ",
"% < u # # Q =.h h n @ = > t C.V.T =.b.e.{ #.=.e.e.Q.^.e.] #.&.{ #.E E } 3.3.5.6.6.6.4.~ n k 7 % 4 k z 0 x ! H 7 < < $ # # # % < ",
"X # 6 < u =.x.$.&.c.r.c.<.A A b Z R R Y E #.&.{ Y { #.E Z Y E R $.Z k _ 3.4.D v 6.C.C.2.} ( E Z Y Y ! J z H j 1 $ # # o o X X X ",
"% < 4 < 7 6 1 Y $.k b _ } A t b ( Z z E &.e.b.G.1Xx.&.x.m.e.&.9.{ ( &.C.C.1.;.;.D 1.i.3.$.$.=.=.&.g g E Q z p 4 < < < % # o X   "
};
